<svg id="Group_4926" data-name="Group 4926" xmlns="http://www.w3.org/2000/svg" width="138.689" height="140.936" viewBox="0 0 138.689 140.936">
  <path id="Union_17" data-name="Union 17" d="M31.174,129.055A31.174,31.174,0,0,1,0,97.881V90.03A31.176,31.176,0,0,1,28.382,58.98a31.05,31.05,0,0,1-7.221-19.954V31.175A31.173,31.173,0,0,1,52.334,0H96.656A31.174,31.174,0,0,1,127.83,31.175v7.851A31.176,31.176,0,0,1,99.447,70.077a31.048,31.048,0,0,1,7.222,19.953v7.852a31.174,31.174,0,0,1-31.174,31.174Z" transform="translate(10.859 11.88)" fill="#ea676c"/>
  <path id="Path_310" data-name="Path 310" d="M959.93,1313.638a3.986,3.986,0,0,1,0-7.972H967.9a3.986,3.986,0,1,1,0,7.972Zm23.917,0a3.986,3.986,0,1,1,0-7.972h7.972a3.986,3.986,0,0,1,0,7.972Zm19.93-3.986a3.986,3.986,0,1,1,3.986,3.986,3.989,3.989,0,0,1-3.986-3.986Zm-27.9-75.735h81.715a9.969,9.969,0,0,1,9.965,9.965v29.9a15.948,15.948,0,0,1-15.944,15.944h-3.986a3.989,3.989,0,0,0-3.986,3.986v27.9a15.94,15.94,0,0,1-15.944,15.944H955.944A15.944,15.944,0,0,1,940,1321.61v-47.833a15.948,15.948,0,0,1,15.944-15.944h71.749a15.906,15.906,0,0,1,14.782,10.1,4.389,4.389,0,0,1,.239.552c.006.018.02.04.026.06h-.006a3.873,3.873,0,0,1,.219,1.242,3.98,3.98,0,0,1-7.721,1.363l-.038.018a7.949,7.949,0,0,0-7.5-5.367H955.944a7.97,7.97,0,0,0-7.972,7.972v47.833a7.97,7.97,0,0,0,7.972,7.972h71.749a7.97,7.97,0,0,0,7.972-7.972v-29.9a9.969,9.969,0,0,1,9.965-9.965h5.979a7.97,7.97,0,0,0,7.972-7.972v-19.93a3.989,3.989,0,0,0-3.986-3.986H973.882a9.969,9.969,0,0,1-9.965-9.965v-13.951A15.948,15.948,0,0,1,979.861,1210h71.75a15.9,15.9,0,0,1,14.782,10.111,3.959,3.959,0,0,1,.239.546c.006.018.018.039.026.059h-.008a3.82,3.82,0,0,1,.221,1.242,3.98,3.98,0,0,1-7.721,1.363l-.038.018a7.949,7.949,0,0,0-7.5-5.367h-71.75a7.97,7.97,0,0,0-7.972,7.972v3.986a3.989,3.989,0,0,0,3.986,3.986Z" transform="translate(-940 -1210)" fill="#044884" fill-rule="evenodd"/>
</svg>
