<svg id="Group_4927" data-name="Group 4927" xmlns="http://www.w3.org/2000/svg" width="142.204" height="151.338" viewBox="0 0 142.204 151.338">
  <rect id="Rectangle_1809" data-name="Rectangle 1809" width="127.725" height="129.125" rx="31.174" transform="translate(14.479 22.213)" fill="#62cce6"/>
  <path id="Path_312" data-name="Path 312" d="M1441.317,970.222h43.015a4.3,4.3,0,1,1,0,8.6h-43.015a4.3,4.3,0,1,1,0-8.6Zm0,34.412h43.015a4.3,4.3,0,0,1,0,8.6h-43.015a4.3,4.3,0,1,1,0-8.6Zm0-17.206h43.015a4.3,4.3,0,0,1,0,8.6h-43.015a4.3,4.3,0,1,1,0-8.6Zm-17.206-17.206a4.3,4.3,0,1,1-4.3,4.3,4.306,4.306,0,0,1,4.3-4.3Zm0,34.412a4.3,4.3,0,1,1-4.3,4.3,4.306,4.306,0,0,1,4.3-4.3Zm0-17.206a4.3,4.3,0,1,1-4.3,4.3,4.306,4.306,0,0,1,4.3-4.3Zm73.126,60.222h-86.031A17.206,17.206,0,0,1,1394,1030.443V944.413a17.21,17.21,0,0,1,17.206-17.206h7.192a2.148,2.148,0,0,0,2-1.355c.007-.015.03-.05.058-.093a10.731,10.731,0,0,1,10.109-7.156h8.775a17.176,17.176,0,0,1,29.767,0h6.624a4.3,4.3,0,0,1,0,8.6h-6.655a8.592,8.592,0,0,1-7.362-4.151,8.528,8.528,0,0,0-14.982,0,8.592,8.592,0,0,1-7.362,4.151h-6.654a4.3,4.3,0,0,0-4.037,2.861l-.021.022a8.6,8.6,0,0,1-8.106,5.721h-9.343a8.6,8.6,0,0,0-8.6,8.6v86.031a8.6,8.6,0,0,0,8.6,8.6h86.031a8.6,8.6,0,0,0,8.6-8.6V944.413a8.6,8.6,0,0,0-8.6-8.6h-6.452a2.146,2.146,0,0,0-2.151,2.151v4.3a10.758,10.758,0,0,1-10.754,10.754h-47.317a10.744,10.744,0,0,1-7.605-3.147l.02-.023a4.737,4.737,0,1,1,6.725-6.672,4.264,4.264,0,0,0,3.011,1.239h43.016a4.3,4.3,0,0,0,4.3-4.3v-4.3a8.6,8.6,0,0,1,8.6-8.6h8.6a17.21,17.21,0,0,1,17.206,17.206v86.031a17.206,17.206,0,0,1-17.206,17.206Z" transform="translate(-1394 -910)" fill="#044884" fill-rule="evenodd"/>
</svg>
