<svg id="Group_4928" data-name="Group 4928" xmlns="http://www.w3.org/2000/svg" width="146.728" height="142.561" viewBox="0 0 146.728 142.561">
  <rect id="Rectangle_1811" data-name="Rectangle 1811" width="127.725" height="129.125" rx="31.174" transform="translate(19.003 13.436)" fill="#fdb958"/>
  <path id="Path_313" data-name="Path 313" d="M302.763,978.463a4.027,4.027,0,1,1-4.027-4.027,4.029,4.029,0,0,1,4.027,4.027Zm0,36.245H282.627a4.027,4.027,0,1,1,0-8.054h20.136a8.052,8.052,0,0,0,8.055-8.055V926.109a8.052,8.052,0,0,0-8.055-8.055H206.109a8.052,8.052,0,0,0-8.055,8.055v44.3a4.029,4.029,0,0,0,4.027,4.027h80.545a4.027,4.027,0,1,1,0,8.054H200.068a10.069,10.069,0,0,1-9.867-8.054H190V926.109A16.112,16.112,0,0,1,206.109,910h96.654a16.112,16.112,0,0,1,16.109,16.109V998.6a16.112,16.112,0,0,1-16.109,16.109Zm-56.382-20.136a4.027,4.027,0,1,1,4.027,4.027,4.03,4.03,0,0,1-4.027-4.027Zm-52.354-4.027a4.03,4.03,0,0,1,4.027,4.027V998.6a8.052,8.052,0,0,0,8.055,8.055h56.382a8.052,8.052,0,0,1,8.055,8.054c0,8.9,7.968,16.109,12.082,16.109a4.027,4.027,0,0,1,0,8.055H226.245a4.027,4.027,0,1,1,0-8.055c2.316,0,6.021-2.443,8.713-6.23a4.026,4.026,0,0,1,7.4,2.2c0,.141-.028.276-.04.409a2.582,2.582,0,0,1-.457,1.484,3.248,3.248,0,0,1-.242.423l-.012.012c-.417.6-.874,1.15-1.323,1.7h28.231c-.437-.538-.892-1.045-1.295-1.625l-.062-.081a26.9,26.9,0,0,1-3.294-6.482,24.847,24.847,0,0,1-1.214-5.4.244.244,0,0,1,0,.066,3.013,3.013,0,0,0-2.988-2.583H206.109A16.112,16.112,0,0,1,190,998.6v-4.027a4.03,4.03,0,0,1,4.027-4.027Z" transform="translate(-190 -910)" fill="#044884" fill-rule="evenodd"/>
</svg>
