<svg xmlns="http://www.w3.org/2000/svg" width="148.133" height="142.919" viewBox="0 0 148.133 142.919">
  <g id="Group_4929" data-name="Group 4929" transform="translate(0.5 0.5)">
    <rect id="Rectangle_1812" data-name="Rectangle 1812" width="127.725" height="129.125" rx="31.174" transform="translate(19.908 13.294)" fill="#fdb958"/>
    <path id="Subtraction_1" data-name="Subtraction 1" d="M113.707,126.263H103.489v-9.019h10.218c4.478,0,8.122-4.046,8.122-9.018V49.6a4.308,4.308,0,0,0-4.061-4.509H10.152A9.222,9.222,0,0,1,6.2,44.208a10.138,10.138,0,0,1-3.227-2.417A11.385,11.385,0,0,1,.8,38.207,12.269,12.269,0,0,1,0,33.82V18.037a19.649,19.649,0,0,1,1.277-7.023A18.2,18.2,0,0,1,4.759,5.282,16.21,16.21,0,0,1,9.922,1.417,14.769,14.769,0,0,1,16.244,0h97.463a14.769,14.769,0,0,1,6.322,1.417,16.21,16.21,0,0,1,5.163,3.865,18.2,18.2,0,0,1,3.482,5.733,19.649,19.649,0,0,1,1.277,7.023v4.509a4.083,4.083,0,1,1-8.122,0V18.037c0-4.973-3.644-9.018-8.122-9.018H16.244c-4.478,0-8.122,4.046-8.122,9.018V31.566a4.308,4.308,0,0,0,4.061,4.509H119.8a9.223,9.223,0,0,1,3.951.886,10.139,10.139,0,0,1,3.227,2.417,11.385,11.385,0,0,1,2.176,3.583,12.269,12.269,0,0,1,.8,4.387v60.877a19.649,19.649,0,0,1-1.277,7.023,18.2,18.2,0,0,1-3.482,5.733,16.21,16.21,0,0,1-5.163,3.865A14.769,14.769,0,0,1,113.707,126.263Zm-42.954,0H16.244a14.769,14.769,0,0,1-6.322-1.417,16.21,16.21,0,0,1-5.163-3.865,18.2,18.2,0,0,1-3.482-5.733A19.649,19.649,0,0,1,0,108.226v-49.6a4.308,4.308,0,0,1,4.061-4.509,4.308,4.308,0,0,1,4.061,4.509v49.6c0,4.973,3.644,9.018,8.122,9.018H70.752v9.018ZM52.793,27.056a4.308,4.308,0,0,1-4.061-4.509,4.083,4.083,0,1,1,8.122,0A4.308,4.308,0,0,1,52.793,27.056Zm-16.244,0a4.308,4.308,0,0,1-4.061-4.509,4.308,4.308,0,0,1,4.061-4.509,4.308,4.308,0,0,1,4.061,4.509A4.308,4.308,0,0,1,36.549,27.056Zm-16.244,0a4.308,4.308,0,0,1-4.061-4.509A4.308,4.308,0,0,1,20.3,18.037a4.308,4.308,0,0,1,4.061,4.509A4.308,4.308,0,0,1,20.3,27.056Z" transform="translate(0)" fill="#044884" stroke="rgba(0,0,0,0)" stroke-miterlimit="10" stroke-width="1"/>
    <g id="Rectangle_49" data-name="Rectangle 49" transform="translate(14.885 60.05)" fill="none" stroke="#044884" stroke-linecap="round" stroke-width="5">
      <rect width="35.18" height="42.396" rx="12" stroke="none"/>
      <rect x="2.5" y="2.5" width="30.18" height="37.396" rx="9.5" fill="none"/>
    </g>
    <path id="Path_315" data-name="Path 315" d="M1122.66,1225.911l-5.657,4.331a2.1,2.1,0,0,0-.765,1.615,2.163,2.163,0,0,0,.072.535l2.26,7.616c-.06-.048-.078-.016-.034.125a2.832,2.832,0,0,1-4.336,3.16l-.981-.691v0a1.168,1.168,0,0,1,.645-2.142,1.152,1.152,0,0,1,.729.263l.005,0,.3.211a.767.767,0,0,0,.417.125.793.793,0,0,0,.793-.793.768.768,0,0,0-.027-.2.094.094,0,0,1-.007-.042l-2.089-7.239a4.216,4.216,0,0,1,1.506-4.493c.009-.007.013-.014.021-.021l5.4-4.162a.792.792,0,0,0-.479-1.423c-.054,0-.073,0-.063-.007H1113.7a4.224,4.224,0,0,1-3.9-2.83l-2.243-6.4a.665.665,0,0,0-.148-.243.7.7,0,0,0-.991,0,.686.686,0,0,0-.171.28c-.005.016-.007.009-.01.01l-2.224,6.355a4.224,4.224,0,0,1-3.9,2.83h-6.667c.01.006-.009.007-.064.007a.792.792,0,0,0-.478,1.424l5.4,4.161c.009.007.012.014.021.021a4.216,4.216,0,0,1,1.506,4.493l-2.089,7.239a.094.094,0,0,1-.007.042.768.768,0,0,0-.027.2.793.793,0,0,0,.793.793.767.767,0,0,0,.417-.125l5.516-3.933.009-.005a4.213,4.213,0,0,1,2.424-.787c.011,0,.019,0,.03,0h.009v0a1.1,1.1,0,0,1,0,2.194h0a1.044,1.044,0,0,0-.593.185l-6.7,4.713a2.832,2.832,0,0,1-4.465-2.314,2.853,2.853,0,0,1,.128-.845c.044-.141.026-.173-.033-.125l2.26-7.616a2.174,2.174,0,0,0,.072-.535,2.1,2.1,0,0,0-.765-1.615l-5.657-4.331a2.988,2.988,0,0,1,1.832-5.349h.036l6.905-.007a2.11,2.11,0,0,0,1.894-1.379l2.813-8c-.144.565-.227.893-.086.489a2.5,2.5,0,0,1,4.715-.021c.13.363.083.142-.03-.308l2.758,7.844a2.11,2.11,0,0,0,1.9,1.379l6.9.007h.036a2.988,2.988,0,0,1,1.832,5.349Zm-12.053,12.616a1.057,1.057,0,1,1-1.057,1.057,1.057,1.057,0,0,1,1.057-1.057Z" transform="translate(-1019.518 -1109.909)" fill="#044884" stroke="#044884" stroke-width="1" fill-rule="evenodd"/>
  </g>
</svg>
