<svg xmlns="http://www.w3.org/2000/svg" width="723.574" height="921.225" viewBox="0 0 723.574 921.225">
  <path id="Path_5860" data-name="Path 5860" d="M883.93,168.271c43.89-40.288,130.232-54.269,186.258-40.2,78.106,19.608,124.371,103.929,161.109,181.2,46.3,97.386,67.141,209.8,53.476,318.36S1222,840.14,1144.994,911.082c-52.628,48.482-116.515,80.751-182.2,103.852-59.967,21.089-185.922,29.039-185.922,29.039s-125.493-33.781-166.912-85.318-57.916-128.466-32.641-191.1c32.8-81.271,119.9-116.745,177.369-179.884,39.011-42.864,63.665-100.225,70.68-159.817,6.494-55.155-1.047-107.386,17.338-161.188C853.753,234.333,859.618,190.585,883.93,168.271Z" transform="translate(-565.331 -122.748)" fill="#f6f6f6"/>
</svg>
