<svg xmlns="http://www.w3.org/2000/svg" width="822.767" height="633.336" viewBox="0 0 822.767 633.336">
  <g id="Group_5040" data-name="Group 5040" transform="translate(-150 -326.057)">
    <path id="Path_16" data-name="Path 16" d="M640.941,387.77l418.452,45.163c4.17.451,7.4,2.161,9.342,4.948,2,2.872,2.51,6.808,1.434,11.086L996.78,740.878c-2.871,11.419-15.46,20.349-26.94,19.11L551.388,714.825c-4.171-.45-7.4-2.161-9.343-4.948-2-2.872-8.786-7.184-7.711-11.461L614,406.881c2.871-11.42,15.459-20.349,26.94-19.111Zm2.756-25.536c-24.173-2.609-48.621,14.577-54.606,38.385L502.836,688.777c-5.986,23.808,21.623,48.976,45.8,51.585l418.452,45.163c24.173,2.609,48.621-14.576,54.606-38.385l73.39-291.911c5.985-23.808-8.758-45.223-32.931-47.832L643.7,362.233Z" transform="translate(-246.893 6.915)" fill="#044884"/>
    <g id="Group_5006" data-name="Group 5006" transform="translate(794.109 596.937) rotate(9)">
      <path id="Path_5466" data-name="Path 5466" d="M88.8,1.789A12.824,12.824,0,0,0,77.734.816c-3.631,1.4-6.778,4.1-10.615,4.737-6.8,1.135-18.161-6.761-23.734-.04-4.186,5.048.588,13.829-3.662,18.824-2.706,3.181-7.562,3.016-11.731,2.771C17.316,26.481.21,28.8,0,42.737-.147,52.752,9.13,62.444,16.71,67.855,33.96,80.168,60.073,84.095,78.4,71.784c15.272-10.26,10.808-23.689,5.377-37.86-2.423-6.322-.282-10.684,3.472-15.7S96,7.748,89.657,2.422A9.075,9.075,0,0,0,88.8,1.789Z"/>
    </g>
    <path id="Path_5429" data-name="Path 5429" d="M24.859,710.131c-12.927-39.307,227.11-10.685,432.93-22.9s388.451-11.219,389.334,22.9-272.736,16.792-478.555,29S37.786,749.438,24.859,710.131Z" transform="translate(125.641 213.613)" fill="#f6f6f6"/>
    <g id="Group_5008" data-name="Group 5008" transform="translate(834.631 610.259) rotate(9)">
      <ellipse id="Ellipse_149" data-name="Ellipse 149" cx="19.149" cy="19.149" rx="19.149" ry="19.149" transform="translate(0 28.434) rotate(-47.939)" fill="#fff"/>
      <path id="Path_5469" data-name="Path 5469" d="M20.645,41.321A20.659,20.659,0,1,1,41.128,17.859h0A20.674,20.674,0,0,1,20.645,41.321Zm.027-38.3a17.641,17.641,0,1,0,2.38,35.119A17.641,17.641,0,0,0,20.672,3.02Z" transform="translate(6.386 6.385)" fill="#090928"/>
    </g>
    <path id="Path_5510" data-name="Path 5510" d="M8.125,19.259C4.968,18.128.57,14.746.093,11.26A9.9,9.9,0,0,1,8.558.11a11.684,11.684,0,0,1,3.365.024l2.588.561Z" transform="translate(835.121 621.313) rotate(9)" fill="#fff"/>
    <g id="Group_5009" data-name="Group 5009" transform="translate(833.865 619.587) rotate(9)">
      <path id="Path_5479" data-name="Path 5479" d="M6.215,18.361a8.882,8.882,0,0,1-6.122-7.1A9.9,9.9,0,0,1,8.558.11a11.684,11.684,0,0,1,3.365.024l2.588.561Z" transform="translate(1.51 1.509)" fill="#fff"/>
      <path id="Path_5480" data-name="Path 5480" d="M7.725,21.38a1.5,1.5,0,0,1-.509-.089A10.391,10.391,0,0,1,.108,12.975,11.407,11.407,0,0,1,9.864.125a13.157,13.157,0,0,1,3.8.027c.03,0,.059.01.089.017l2.588.561a1.509,1.509,0,0,1-.64,2.95l-2.542-.551a10.177,10.177,0,0,0-2.886-.013A8.4,8.4,0,0,0,3.1,12.566,7.338,7.338,0,0,0,8.234,18.45a1.509,1.509,0,0,1-.509,2.93Z" fill="#090928"/>
    </g>
    <path id="Path_5511" data-name="Path 5511" d="M1.642,0C-3.252,8.372,3.711,19.1,10.5,24.1c9.121,6.716,27.037,9.38,33.318-2.656C51.592,6.556,32.776,2.758,21.944,4.44,7.046,6.755,1.643,0,1.642,0Z" transform="translate(845.986 610.357) rotate(9)"/>
    <g id="Group_5010" data-name="Group 5010" transform="translate(846.492 592.206) rotate(9)">
      <path id="Path_5485" data-name="Path 5485" d="M.129,6.11h0a7.475,7.475,0,0,0,6.886,8.83l14.808.916,1.09-9.227L10.724.748A7.474,7.474,0,0,0,.129,6.11Z" transform="translate(0 5.259)" fill="#ea676c"/>
      <path id="Path_5486" data-name="Path 5486" d="M20.46,3.146h0a7.474,7.474,0,0,1-2.542,10.9L4.863,21.1,0,13.183,8.593,2.729A7.473,7.473,0,0,1,20.46,3.146Z" transform="translate(17.023 0)" fill="#ea676c"/>
    </g>
    <path id="Subtraction_35" data-name="Subtraction 35" d="M-6120.821,4530.176a2.406,2.406,0,0,1-1.379-.437,2.294,2.294,0,0,1-.868-1.174l-1.829-5.672c-.475-.017-.953-.05-1.418-.1l-2.6,5.217a2.321,2.321,0,0,1-.886.955,2.407,2.407,0,0,1-1.233.34,2.368,2.368,0,0,1-1.071-.255l-8.487-4.249a2.3,2.3,0,0,1-1.161-1.322,2.244,2.244,0,0,1,.117-1.74l2.485-4.984a20.666,20.666,0,0,1-1.8-2.033l-5.155,1.592a2.41,2.41,0,0,1-.71.108,2.385,2.385,0,0,1-1.38-.437,2.291,2.291,0,0,1-.866-1.174l-2.83-8.771a2.3,2.3,0,0,1,1.538-2.891l5.143-1.588c.022-.594.068-1.18.137-1.744l-4.833-2.34a2.305,2.305,0,0,1-1.187-1.328,2.245,2.245,0,0,1,.121-1.76l4.17-8.243a2.318,2.318,0,0,1,.885-.946,2.4,2.4,0,0,1,1.228-.337,2.36,2.36,0,0,1,1.043.24l4.847,2.346a20.775,20.775,0,0,1,1.972-1.65l-1.625-5.032a2.3,2.3,0,0,1,1.538-2.892l8.965-2.768a2.41,2.41,0,0,1,.71-.108,2.415,2.415,0,0,1,1.379.438,2.288,2.288,0,0,1,.866,1.174l1.627,5.043c.7.026,1.4.085,2.092.177l2.486-4.7a2.358,2.358,0,0,1,2.094-1.245,2.374,2.374,0,0,1,1.082.259l8.347,4.23a2.283,2.283,0,0,1,1.008,3.106l-2.481,4.686a20.481,20.481,0,0,1,1.422,1.653l5.156-1.593a2.42,2.42,0,0,1,.71-.107,2.412,2.412,0,0,1,1.379.437,2.286,2.286,0,0,1,.866,1.175l2.913,9.025a2.24,2.24,0,0,1-.157,1.757,2.326,2.326,0,0,1-1.381,1.135l-5.237,1.617c-.03.615-.09,1.236-.177,1.846l5.021,2.539a2.306,2.306,0,0,1,1.156,1.328,2.25,2.25,0,0,1-.124,1.739l-4.218,8.373a2.314,2.314,0,0,1-.886.949,2.4,2.4,0,0,1-1.229.338,2.369,2.369,0,0,1-1.079-.257l-5.258-2.66c-.5.45-1.028.882-1.574,1.284l1.827,5.66a2.242,2.242,0,0,1-.157,1.756,2.328,2.328,0,0,1-1.379,1.135l-8.966,2.769A2.4,2.4,0,0,1-6120.821,4530.176Zm-3.208-41.912a14.711,14.711,0,0,0-10.354,4.2,14.079,14.079,0,0,0-4.289,10.129,14.076,14.076,0,0,0,4.289,10.128,14.712,14.712,0,0,0,10.354,4.2,14.71,14.71,0,0,0,10.353-4.2,14.121,14.121,0,0,0,0-20.257A14.709,14.709,0,0,0-6124.029,4488.264Z" transform="translate(6473.063 -4148.443)" fill="#fdb958" stroke="rgba(0,0,0,0)" stroke-miterlimit="10" stroke-width="1"/>
    <path id="Path_13" data-name="Path 13" d="M977.263,1113.7l-160.256-17.3a38.607,38.607,0,0,0-42.527,34.242l-.5,4.605L940.1,1153.182a28.056,28.056,0,0,0,29.345-18.216Z" transform="translate(-344.082 -249.885)" fill="#044884"/>
    <path id="Path_14" data-name="Path 14" d="M865.929,1083.88l100.741,10.873a24.745,24.745,0,0,0,25.876-33.156L949.061,943.545,808.654,928.391Z" transform="translate(-356.473 -189.925)" fill="#044884"/>
    <path id="Path_15" data-name="Path 15" d="M978.112,779.9c17.7,1.911,36.376-11.253,40.773-28.746l73.39-291.912c1.995-7.934.8-15.591-3.352-21.558-4.07-5.842-10.641-9.526-18.5-10.374L714.415,388.885l-62.446-6.74c-17.7-1.911-36.375,11.254-40.773,28.748L529.279,702.025c-1.995,7.935,7.723,16.37,11.879,22.335,4.07,5.842,10.641,9.528,18.5,10.376Z" transform="translate(-256.543 -0.228)" fill="#044884" opacity="0.2"/>
    <g id="Group_17" data-name="Group 17" transform="translate(565.457 571.838)">
      <path id="Path_18" data-name="Path 18" d="M1095.1,888.884H987.927a3.011,3.011,0,0,1-3.01-3.01V680.787a3.011,3.011,0,0,1,3.01-3.01H1162.9a3.011,3.011,0,0,1,3.011,3.01v92.565a3.011,3.011,0,0,1-6.021,0V683.8H990.937V882.863H1095.1a3.01,3.01,0,0,1,0,6.021Z" transform="translate(-974.643 -737.022)" fill="#090928"/>
    </g>
    <g id="Group_19" data-name="Group 19" transform="matrix(0.999, 0.035, -0.035, 0.999, 316.217, 398.735)">
      <g id="Group_18" data-name="Group 18" transform="translate(19.196 29.161)">
        <path id="Path_19" data-name="Path 19" d="M790.618,703.818q-.476,0-.96-.047L664.793,691.754a2.571,2.571,0,0,1,.492-5.117L790.15,698.654a4.822,4.822,0,0,0,5.25-4.328l16.388-170.272a4.817,4.817,0,0,0-4.328-5.25L592.327,498.1a2.732,2.732,0,0,0-1.888.482,1.738,1.738,0,0,0-.733,1.2L573.042,672.926a4.818,4.818,0,0,0,4.328,5.25l27.644,2.661a2.57,2.57,0,0,1-.492,5.117l-27.643-2.661a9.964,9.964,0,0,1-8.953-10.859l16.664-173.146a6.781,6.781,0,0,1,2.8-4.848,7.862,7.862,0,0,1,5.428-1.459l215.133,20.705a9.964,9.964,0,0,1,8.953,10.86L800.518,694.819A9.969,9.969,0,0,1,790.618,703.818Z" transform="translate(-567.878 -492.943)" fill="#090928"/>
      </g>
      <path id="Path_259" data-name="Path 259" d="M17.825,0H220.672A17.825,17.825,0,0,1,238.5,17.825v.23a17.825,17.825,0,0,1-17.825,17.825H17.825A17.825,17.825,0,0,1,0,18.056v-.23A17.825,17.825,0,0,1,17.825,0Z" transform="matrix(1, 0.019, -0.019, 1, 30.438, 20.416)" fill="#035aa7"/>
      <rect id="Rectangle_6" data-name="Rectangle 6" width="96.397" height="38.08" transform="translate(55.644 156.257) rotate(5.648)" fill="#fff"/>
      <rect id="Rectangle_7" data-name="Rectangle 7" width="96.397" height="63.622" transform="translate(63.978 71.996) rotate(5.649)" fill="#fff"/>
      <path id="Path_186" data-name="Path 186" d="M0,0H63.622V63.622H0Z" transform="translate(177.072 83.181) rotate(5.648)" fill="#fff"/>
      <path id="Path_185" data-name="Path 185" d="M0,0H63.622V66.408H0Z" transform="translate(171.539 139.123) rotate(5.648)" fill="#fff"/>
      <circle id="Ellipse_2" data-name="Ellipse 2" cx="20.207" cy="20.207" r="20.207" transform="translate(88.422 88.956)" fill="#ea676c"/>
      <path id="Path_20" data-name="Path 20" d="M712.265,613.8l-8.043,3.725-8.043,3.725.8-8.828.795-8.828,7.248,5.1Z" transform="translate(-594.531 -503.322)" fill="#fff"/>
    </g>
    <path id="Path_5431" data-name="Path 5431" d="M0,0H74.51V113.446H0Z" transform="translate(599.818 540.5)" fill="#fff"/>
    <rect id="Rectangle_11" data-name="Rectangle 11" width="74.51" height="35.686" transform="translate(599.818 670.862)" fill="#fff"/>
    <rect id="Rectangle_12" data-name="Rectangle 12" width="49.544" height="166.049" transform="translate(690.484 540.5)" fill="#fff"/>
    <path id="Path_261" data-name="Path 261" d="M20.876,0H150.112a20.876,20.876,0,0,1,20.876,20.876v.27a20.876,20.876,0,0,1-20.876,20.876H20.876A20.876,20.876,0,0,1,0,21.146v-.27A20.876,20.876,0,0,1,20.876,0Z" transform="translate(608.922 491.207)" fill="#035aa7"/>
    <g id="Group_158" data-name="Group 158" transform="translate(498.445 510.967) rotate(8)">
      <path id="Path_4085" data-name="Path 4085" d="M3.3,0A3.287,3.287,0,1,1,0,3.287,3.293,3.293,0,0,1,3.3,0Z" transform="translate(26.388 74.503)" fill="#035aa7"/>
      <path id="Path_184" data-name="Path 184" d="M33.448.019C33.3.009,33.146,0,33,0H13.158c-.143,0-.29.009-.433.019C9.31.3,6.606,3.7,6.6,7.867V55.4c0,2.162,1.458,3.911,3.257,3.911h.062c1.81,0,3.276-1.763,3.276-3.93V11.843a3.719,3.719,0,0,1,3.063-3.934H29.921a3.719,3.719,0,0,1,3.063,3.934V27.7c0,2.176-1.474,3.943-3.288,3.943H26.389v0H23.055a3.434,3.434,0,0,0-3.164,2.974c-.027.125-.05.255-.066.385-.008.042-.012.088-.015.13-.008.074-.012.153-.016.227s0,.13,0,.2v.079c0,.07,0,.135,0,.2l.012.195c.008.093.019.181.031.269.008.037.012.07.019.107.023.129.05.255.081.376.016.06.031.121.05.176.035.121.077.241.124.357a3.4,3.4,0,0,0,2.309,2.162c.108.023.217.046.329.06s.224.019.337.019H29.7c1.756,0,3.195,1.661,3.284,3.739V59.344c0,.07,0,.135,0,.2-.089,2.083-1.528,3.743-3.284,3.743H3.311C1.485,63.292,0,65.068,0,67.263A4.361,4.361,0,0,0,.963,70.05a3.034,3.034,0,0,0,2.325,1.155H33c3.636,0,6.583-3.535,6.583-7.9V7.886C39.582,3.711,36.875.3,33.448.019Z" fill="#035aa7"/>
    </g>
    <text id="شراء" transform="translate(613 697.705)" fill="#ea676c" font-size="34" font-family="Somar-Bold, Somar" font-weight="700"><tspan x="0" y="0">شراء</tspan></text>
    <text id="متجرك_الالكتروني_" data-name="متجرك الالكتروني " transform="translate(390.424 446.148) rotate(3)" fill="#f6f6f6" font-size="25" font-family="Somar-Bold, Somar" font-weight="700"><tspan x="0" y="0">متجرك الالكتروني</tspan><tspan y="0"> </tspan></text>
    <g id="Group_4984" data-name="Group 4984" transform="translate(719.094 645.486)">
      <g id="Group_4973" data-name="Group 4973" transform="translate(135.276 90.813)">
        <path id="Path_5495" data-name="Path 5495" d="M553.157,1175.893l-24.8-132.076a19.082,19.082,0,0,0-37.507,7.044l24.8,132.076C517.371,1192.1,555.1,1186.25,553.157,1175.893Z" transform="translate(-490.514 -1028.253)"/>
      </g>
      <g id="Group_4974" data-name="Group 4974" transform="translate(67.392 97.757)">
        <path id="Path_5496" data-name="Path 5496" d="M639.571,1190.1,673.1,1065.39a19.081,19.081,0,1,0-36.854-9.907L602.716,1180.2C599.981,1190.373,637.281,1198.622,639.571,1190.1Z" transform="translate(-602.573 -1041.35)"/>
      </g>
      <path id="Path_5497" data-name="Path 5497" d="M510.072,994.4a156.3,156.3,0,0,0,88.871,0c1.688-.488.433-21.763.263-24.342a115.941,115.941,0,0,0-3.923-22.947c-5.406-19.756-16.247-39-39.416-39-18.8,0-30.331,13.38-36.419,29.89a165.09,165.09,0,0,0-7.063,25.65C511.77,966.854,507.608,993.684,510.072,994.4Z" transform="translate(-411.783 -881.005)" fill="#035aa7"/>
      <path id="Path_5498" data-name="Path 5498" d="M591.238,896.713H560.386l-3.154,17.809h37.16Z" transform="translate(-431.776 -875.647)" fill="#035aa7"/>
      <g id="Group_4975" data-name="Group 4975" transform="matrix(0.995, 0.105, -0.105, 0.995, 57.986, 89.435)">
        <path id="Path_5499" data-name="Path 5499" d="M27.157,35.725a1.326,1.326,0,0,0,.134-2.644c-5.223-.536-19.1-1.96-22.235-6.382a2.913,2.913,0,0,1-.479-2.52A3.564,3.564,0,0,1,8.871,21.54l8.4,2.008a1.326,1.326,0,0,0,1.622-1.466c-.024-.178-.047-.358-.064-.539a1.326,1.326,0,0,0-1.012-1.166L5.387,17.406a3.564,3.564,0,1,1,1.658-6.932l12.5,2.99a1.326,1.326,0,0,0,1.418-.565l.058-.09c.042-.064.084-.128.127-.191a1.326,1.326,0,0,0-.784-2.042L15.811,9.487l-.008,0a3.563,3.563,0,0,1-2.151-1.674,3.67,3.67,0,0,1-.484-2.771c.531-2.073,2.328-2.719,6.2-2.23,1.488.187,3.276.367,5.17.557,2.834.285,6.045.607,9.392,1.063A1.326,1.326,0,0,0,34.292,1.8C30.9,1.341,27.662,1.016,24.807.73c-1.958-.2-3.648-.366-5.1-.55-1.922-.243-7.775-.981-9.1,4.2a6.267,6.267,0,0,0,.53,4.343L7.661,7.9A6.215,6.215,0,0,0,4.485,19.909,6.167,6.167,0,0,0,2,23.562a5.534,5.534,0,0,0,.9,4.67c3.378,4.762,14.091,6.457,24.127,7.486A1.323,1.323,0,0,0,27.157,35.725Z"/>
      </g>
      <g id="Group_4976" data-name="Group 4976" transform="translate(0 0)">
        <path id="Path_5500" data-name="Path 5500" d="M802.533,893.846a1.326,1.326,0,0,0,.861-2.334c-4-3.406-14.612-12.454-14.685-17.875a2.916,2.916,0,0,1,1.036-2.347,3.564,3.564,0,0,1,5.033.266l5.776,6.421a1.325,1.325,0,0,0,2.168-.288c.081-.161.165-.321.253-.479a1.326,1.326,0,0,0-.172-1.534l-8.547-9.5a3.563,3.563,0,0,1,.266-5.033,3.563,3.563,0,0,1,5.032.266l8.6,9.558a1.325,1.325,0,0,0,1.487.34l.09-.037c.073-.03.146-.061.22-.089a1.325,1.325,0,0,0,.516-2.126l-3.137-3.488a3.567,3.567,0,0,1-.823-2.6,3.675,3.675,0,0,1,1.174-2.556c1.612-1.4,3.46-.917,6.374,1.685,1.118,1,2.489,2.161,3.939,3.393,2.172,1.843,4.633,3.932,7.131,6.207a1.326,1.326,0,0,0,1.785-1.961c-2.532-2.306-5.012-4.411-7.2-6.267-1.5-1.273-2.8-2.372-3.889-3.348-1.445-1.292-5.843-5.222-9.881-1.708a6.27,6.27,0,0,0-2.028,3.877l-2.386-2.652a6.215,6.215,0,0,0-9.432,8.089,6.168,6.168,0,0,0-4.121,1.595,5.532,5.532,0,0,0-1.914,4.353c.078,5.837,7.938,13.314,15.615,19.857A1.318,1.318,0,0,0,802.533,893.846Z" transform="translate(-786.057 -856.985)"/>
      </g>
      <g id="Group_4977" data-name="Group 4977" transform="translate(29.43 22.337)" style="isolation: isolate">
        <path id="Path_5501" data-name="Path 5501" d="M654.414,948.509A96.994,96.994,0,0,0,703.829,935l-15.08-25.567a67.433,67.433,0,0,1-75.451-4.481l-3.677-2.8a14.841,14.841,0,0,0-18,23.6l3.676,2.8a97.043,97.043,0,0,0,53.283,19.779Q651.5,948.51,654.414,948.509Z" transform="translate(-585.779 -899.11)" fill="#035aa7"/>
      </g>
      <g id="Group_4978" data-name="Group 4978" transform="translate(102.984 37.854)" style="isolation: isolate">
        <path id="Path_5502" data-name="Path 5502" d="M523.421,1031.537c15.88,0,29.314-4.5,38.989-13.092a44.6,44.6,0,0,0,13.73-43.834c-3.754-15.654-14.912-29.8-34.111-43.237a16.863,16.863,0,0,0-22.43,2.9,14.137,14.137,0,0,0,3.127,20.787c12.693,8.885,20.145,17.63,22.151,25.992a16.365,16.365,0,0,1-4.623,15.961c-8.856,7.863-29.463,5.016-44.863-.957-8.159-3.162-17.541.4-20.954,7.962s.432,16.255,8.59,19.42c7.17,2.781,21.584,7.525,37.552,8.053C521.533,1031.521,522.484,1031.537,523.421,1031.537Z" transform="translate(-473.191 -928.375)" fill="#035aa7"/>
      </g>
      <g id="Group_4981" data-name="Group 4981" transform="translate(102.983 72.175)">
        <g id="Group_4979" data-name="Group 4979" transform="translate(16.976 61.835)">
          <path id="Path_5503" data-name="Path 5503" d="M579.987,1117.936a70.757,70.757,0,0,0,10.115-.708,1.322,1.322,0,0,0,1.139-1.5,1.345,1.345,0,0,0-1.539-1.107,69.944,69.944,0,0,1-12.357.633,103.538,103.538,0,0,1-28.847-5.581,1.366,1.366,0,0,0-1.724.808,1.307,1.307,0,0,0,.832,1.676,106.331,106.331,0,0,0,29.643,5.726C578.159,1117.919,579.081,1117.936,579.987,1117.936Z" transform="translate(-546.698 -1109.604)"/>
        </g>
        <g id="Group_4980" data-name="Group 4980">
          <path id="Path_5504" data-name="Path 5504" d="M544.783,1057.527a1.445,1.445,0,0,0,1.365-.889,1.3,1.3,0,0,0-.888-1.689c-2.276-.729-4.509-1.511-6.638-2.328-7.5-2.876-11.046-10.81-7.908-17.685a14.107,14.107,0,0,1,8.007-7.288,15.877,15.877,0,0,1,11.283.037c15.989,6.135,37.488,8.966,46.909.691a17.527,17.527,0,0,0,5.084-17.2c-1.395-5.755-5.286-11.7-11.565-17.664a1.54,1.54,0,0,0-2.044-.033,1.249,1.249,0,0,0-.036,1.875c5.9,5.609,9.546,11.126,10.823,16.4a14.975,14.975,0,0,1-4.262,14.715c-8.481,7.45-28.645,4.59-43.793-1.222a18.991,18.991,0,0,0-13.5-.045,16.878,16.878,0,0,0-9.578,8.718c-3.753,8.224.491,17.714,9.46,21.155,2.182.837,4.47,1.64,6.8,2.386A1.568,1.568,0,0,0,544.783,1057.527Z" transform="translate(-526.679 -993.103)"/>
        </g>
      </g>
      <path id="Path_5493" data-name="Path 5493" d="M663.614,1347.545h18.325c5.63,0,11.128-2.439,15.832-5.354,3.772-2.338,9.439-7.041,14.053-4.209,2.766,1.7,4.659,4.87,6.317,7.567a4.189,4.189,0,0,0,3.569,2h.95a5.888,5.888,0,0,0,5.878-6.229l-1.511-26.022-36.989-4.884C675.836,1319.2,667.9,1332.8,663.614,1347.545Z" transform="translate(-622.34 -1069.988)" fill="#035aa7"/>
      <path id="Path_5494" data-name="Path 5494" d="M506.347,1347.545H488.021c-5.63,0-11.128-2.439-15.832-5.354-3.772-2.338-9.439-7.041-14.053-4.209-2.766,1.7-4.66,4.87-6.317,7.567a4.19,4.19,0,0,1-3.57,2h-.95a5.888,5.888,0,0,1-5.878-6.229l1.511-26.022,36.988-4.884C494.125,1319.2,502.058,1332.8,506.347,1347.545Z" transform="translate(-282.319 -1069.988)" fill="#035aa7"/>
    </g>
    <path id="Path_5513" data-name="Path 5513" d="M6908.728-3757.321s29.067,24.757,64.457,21.342" transform="translate(-6151 4453.038)" fill="none" stroke="#000" stroke-width="2"/>
    <path id="Path_5514" data-name="Path 5514" d="M6993.116-3772.343s17.655,2.685,35.312,0" transform="translate(-6148.289 4449.923)" fill="none" stroke="#000" stroke-width="2"/>
    <g id="Group_5005" data-name="Group 5005" transform="translate(193.254 594.228)">
      <path id="Path_21" data-name="Path 21" d="M418.806,1209.142c-.008,0-34.565-53.911-34.565-53.911l27.622-17.709,17.914,18.217a21.516,21.516,0,0,1,4.851,7.613c.859,2.947-1.412,4.831-3.083,6.872a11.6,11.6,0,0,0-2.817,7.057c-.416,5.614,1.328,10.963,3.168,16.181,1.6,4.524,1.366,7.861-2.321,11.3C427,1207.156,422.563,1210.216,418.806,1209.142Z" transform="translate(-384.241 -867.111)"/>
      <path id="Path_22" data-name="Path 22" d="M718.829,1182.726c-.005.006-62.379,14.489-62.379,14.489l-7.423-31.96,23.169-10.77a21.5,21.5,0,0,1,8.8-2.018c3.065.179,4.078,2.95,5.441,5.209a11.6,11.6,0,0,0,5.7,5.021c5.15,2.273,10.774,2.425,16.307,2.44,4.8.013,7.865,1.349,9.863,5.975C719.7,1174.34,721.1,1179.546,718.829,1182.726Z" transform="translate(-478.862 -872.447)"/>
      <g id="Group_20" data-name="Group 20" transform="translate(104.037 147.518)">
        <path id="Path_23" data-name="Path 23" d="M610.826,1091.8,548.441,975.072a19.556,19.556,0,1,1,34.494-18.436l62.385,116.728C650.411,1082.889,615.088,1099.773,610.826,1091.8Z" transform="translate(-546.128 -946.293)" fill="#ea676c"/>
      </g>
      <g id="Group_21" data-name="Group 21" transform="translate(24.09 149.771)">
        <path id="Path_24" data-name="Path 24" d="M467.692,1084.593l-18.745,16.272c-8.156,7.08-33.8-22.456-25.639-29.536l18.745-16.273a82.271,82.271,0,0,0,27.9-70.042l-1.321-13.482a19.555,19.555,0,0,1,17.555-21.37c10.749-1.053,26.137-.431,27.19,10.318l.276,5.869a11.347,11.347,0,0,1-5.24,10.105h0l.465,4.745A121.443,121.443,0,0,1,467.692,1084.593Z" transform="translate(-421.726 -949.799)" fill="#ea676c"/>
      </g>
      <path id="Path_25" data-name="Path 25" d="M575.283,912.456c-3.467,6.669-10.636,14.069-20.88,16.127-18.252,3.667-45.015-1.707-69.1-2.009-5.633-26-4.7-39.8,1.254-65.69,3.25-14.143,13.01-32.506,27.347-34.755l1.769,7.619a35.523,35.523,0,0,1,39.087,23.505Z" transform="translate(-419.013 -755.835)" fill="#035aa7"/>
      <path id="Path_26" data-name="Path 26" d="M506.953,814.687l27.681-6.429,9.413,19.163-37.1,8.616Z" transform="translate(-428.091 -749.448)" fill="#035aa7"/>
      <g id="Group_23" data-name="Group 23" transform="translate(60.644 8.52)">
        <ellipse id="Ellipse_3" data-name="Ellipse 3" cx="19.79" cy="19.79" rx="19.79" ry="19.79" transform="matrix(0.463, -0.886, 0.886, 0.463, 0, 35.078)" fill="#fff"/>
        <g id="Group_22" data-name="Group 22" transform="translate(5.053 5.054)">
          <path id="Path_27" data-name="Path 27" d="M512.065,784.382a21.652,21.652,0,1,1,21.091-26.551h0a21.661,21.661,0,0,1-21.091,26.551Zm0-39.586a17.932,17.932,0,1,0,17.464,13.876A17.884,17.884,0,0,0,512.068,744.8Z" transform="translate(-490.413 -741.076)" fill="#090928"/>
        </g>
      </g>
      <path id="Path_28" data-name="Path 28" d="M528.964,745.944a40.112,40.112,0,0,1-18.765.708c-3.856-.795-7.007-2.99-10.173-.65a9.877,9.877,0,0,0-3.528,9.928c.209.911-.594,3.152-.295,4.328.266,1.044,1.8.843,1.706,1.753-.862,8.195-10.216,7.229-15.38,3.807-6.343-4.2-10.529-14.545-3.411-20.162a8.543,8.543,0,0,1,3.015-1.452c2.27-.629,4.995-.062,6.777-1.606,2.9-2.513.365-6.723.077-9.768-1.351-14.284,15.557-17.855,26.007-15.337a28.815,28.815,0,0,1,15.759,9.943c3.2,3.952,5.833,12.749,1.32,16.849A8.348,8.348,0,0,1,528.964,745.944Z" transform="translate(-420.872 -721.276)" fill="#090928"/>
      <g id="Group_24" data-name="Group 24" transform="translate(12.932 195.071)">
        <path id="Path_29" data-name="Path 29" d="M419.188,1058.028a6.623,6.623,0,0,1-6.435-8.18,6.593,6.593,0,0,1-4.249-.128,5.987,5.987,0,0,1-3.6-3.578c-2.151-5.689,2.56-15.832,7.453-25a1.607,1.607,0,1,1,2.835,1.513c-2.518,4.72-9.208,17.262-7.282,22.354a2.751,2.751,0,0,0,1.723,1.7,3.408,3.408,0,0,0,4.38-2l3.1-8.291a1.607,1.607,0,0,1,2.571-.641c.136.121.272.241.414.356a1.608,1.608,0,0,1,.489,1.808L416,1050.215a3.4,3.4,0,0,0,6.378,2.384l4.613-12.343a1.606,1.606,0,0,1,1.5-1.044h.024l.087,0,.251,0a1.607,1.607,0,0,1,1.521,2.169l-1.685,4.509a3.4,3.4,0,0,0,.186,2.593,3.515,3.515,0,0,0,1.938,1.868c1.4.5,3,.373,5.142-3.878.692-1.373,1.562-3,2.483-4.712,1.38-2.573,2.943-5.488,4.471-8.594a1.607,1.607,0,1,1,2.884,1.418c-1.553,3.156-3.13,6.1-4.522,8.694-.951,1.772-1.772,3.3-2.445,4.641-.919,1.822-3.714,7.365-9.087,5.458a6.6,6.6,0,0,1-3.252-2.605l-1.1,2.947a6.63,6.63,0,0,1-6.2,4.3Z" transform="translate(-404.365 -1020.289)" fill="#090928"/>
      </g>
      <g id="Group_25" data-name="Group 25" transform="translate(180.438 4.586)">
        <path id="Path_30" data-name="Path 30" d="M695.065,762.1a1.606,1.606,0,0,1-1.288-2.566c3.2-4.292,11.684-15.691,10.541-21.015a2.755,2.755,0,0,0-1.449-1.943,3.4,3.4,0,0,0-4.63,1.321l-4.3,7.736a1.607,1.607,0,0,1-2.638.249c-.116-.139-.234-.28-.357-.415a1.606,1.606,0,0,1-.213-1.859l6.367-11.446a3.4,3.4,0,1,0-5.95-3.31l-6.405,11.514a1.607,1.607,0,0,1-1.664.8l-.338-.055a1.606,1.606,0,0,1-1.18-2.372l2.337-4.2a3.4,3.4,0,0,0,.206-2.6,3.515,3.515,0,0,0-1.636-2.136c-1.314-.7-2.909-.817-5.664,3.065-.891,1.256-2,2.733-3.164,4.3-1.747,2.335-3.727,4.982-5.7,7.822a1.606,1.606,0,0,1-2.639-1.833c2-2.886,4-5.557,5.764-7.914,1.207-1.614,2.25-3.008,3.118-4.231,1.18-1.664,4.772-6.732,9.8-4.04a6.6,6.6,0,0,1,2.826,3.062l1.529-2.749a6.618,6.618,0,0,1,11.91,5.719,6.592,6.592,0,0,1,4.182.761,5.987,5.987,0,0,1,3.029,4.076c1.277,5.946-4.9,15.271-11.1,23.609A1.6,1.6,0,0,1,695.065,762.1Z" transform="translate(-665.013 -723.882)" fill="#090928"/>
      </g>
      <g id="Group_26" data-name="Group 26" transform="translate(81.542 40.894)">
        <path id="Path_31" data-name="Path 31" d="M526.32,855.832a15.211,15.211,0,0,1-1.084-30.381c32.593-2.362,57.7-15.217,76.75-39.3a15.21,15.21,0,1,1,23.857,18.875c-24.3,30.711-57.407,47.791-98.407,50.763C527.061,855.819,526.689,855.832,526.32,855.832Z" transform="translate(-511.125 -780.381)" fill="#035aa7"/>
      </g>
      <g id="Group_27" data-name="Group 27" transform="translate(28.495 85.119)" style="isolation: isolate">
        <path id="Path_32" data-name="Path 32" d="M444.878,969.565A15.214,15.214,0,0,1,429.824,956.4c-3-22.146-.562-42.269,7.259-59.811,7.848-17.6,21.142-32.7,39.514-44.86a15.21,15.21,0,0,1,16.792,25.365c-26.935,17.832-37.867,42.435-33.42,75.217a15.224,15.224,0,0,1-15.091,17.256Z" transform="translate(-428.58 -849.197)" fill="#035aa7"/>
      </g>
      <g id="Group_30" data-name="Group 30" transform="translate(35.39 86.042)">
        <g id="Group_28" data-name="Group 28">
          <path id="Path_33" data-name="Path 33" d="M440.917,898.707a1.608,1.608,0,0,1-1.466-2.261c7.975-17.888,21.464-33.212,40.094-45.546a1.607,1.607,0,1,1,1.773,2.68c-18.112,11.991-31.211,26.853-38.933,44.174A1.606,1.606,0,0,1,440.917,898.707Z" transform="translate(-439.31 -850.633)" fill="#090928"/>
        </g>
        <g id="Group_29" data-name="Group 29" transform="translate(29.008 25.367)">
          <path id="Path_34" data-name="Path 34" d="M486.054,922.817a1.608,1.608,0,0,1-1.438-2.322c5.741-11.553,15.111-21.687,27.85-30.123a1.606,1.606,0,1,1,1.774,2.679c-12.262,8.12-21.261,17.834-26.746,28.873A1.608,1.608,0,0,1,486.054,922.817Z" transform="translate(-484.448 -890.105)" fill="#090928"/>
        </g>
      </g>
      <g id="Group_32" data-name="Group 32" transform="translate(70.85 21.92)">
        <path id="Path_35" data-name="Path 35" d="M513.338,754.323c-3.787-.807-8.624-1.866-12.16.322a9.653,9.653,0,0,0-3.644,11.06,4.547,4.547,0,0,0,3.837,3Z" transform="translate(-495.382 -751.745)" fill="#fff"/>
        <g id="Group_31" data-name="Group 31">
          <path id="Path_36" data-name="Path 36" d="M500.48,769.419a1.653,1.653,0,0,1-.223-.015,6.129,6.129,0,0,1-5.11-4,11.246,11.246,0,0,1,4.292-13.016c4.051-2.508,9.356-1.377,13.231-.551l.109.023a1.607,1.607,0,0,1-.67,3.143l-.109-.024c-3.527-.752-7.918-1.687-10.87.14a8.087,8.087,0,0,0-2.994,9.1,2.961,2.961,0,0,0,2.563,2,1.607,1.607,0,0,1-.219,3.2Z" transform="translate(-494.488 -750.855)" fill="#090928"/>
        </g>
      </g>
      <path id="Path_37" data-name="Path 37" d="M544.01,831.4h0a6.1,6.1,0,0,0,6.221,2.228l2.967-.689s11.12,51.269,43.784,48.839l-3.359-9.22,10.142-7.179s-30.069-5.721-44.06-30.944l-5.6-9.8a6.06,6.06,0,0,0-6.631-2.9h0A6.1,6.1,0,0,0,544.01,831.4Z" transform="translate(-440.882 -754.208)" fill="#ea676c"/>
    </g>
  </g>
</svg>
