<svg xmlns="http://www.w3.org/2000/svg" width="822.684" height="621.698" viewBox="0 0 822.684 621.698">
  <g id="Group_5042" data-name="Group 5042" transform="translate(21432.918 5726)">
    <path id="Path_5680" data-name="Path 5680" d="M24.859,710.131c-12.927-39.307,277.188-7.561,483.008-19.774s338.373-14.342,339.257,19.774-315.5,6.634-521.323,18.846S37.786,749.438,24.859,710.131Z" transform="translate(-21457.359 -5843.387)" fill="#f6f6f6"/>
    <g id="Group_5039" data-name="Group 5039" transform="translate(35.22 -36.617)">
      <path id="Path_215" data-name="Path 215" d="M1573.679,410.249h228.513a36.129,36.129,0,0,0-32.655-20.672c-.467,0-.922.012-1.377.037a42.374,42.374,0,0,0-34.757-18.079,40.8,40.8,0,0,0-5.654.381,60.241,60.241,0,0,0-111.067-.369c-.246-.012-.492-.012-.738-.012A42.428,42.428,0,0,0,1573.679,410.249Z" transform="translate(-22565.35 -5960.472)" fill="#069"/>
      <path id="Path_193" data-name="Path 193" d="M610.19,327.725H769.033a36.587,36.587,0,0,0-36.592-36.592,36.179,36.179,0,0,0-6.069.5,50.014,50.014,0,0,0-92.933,9.044A27.365,27.365,0,0,0,610.19,327.725Z" transform="translate(-21983.496 -5953.361)" fill="#fdb958"/>
      <g id="Group_184" data-name="Group 184" transform="translate(-21285.729 -5677.809)">
        <path id="Path_194" data-name="Path 194" d="M951.113,846.469l204.556-38.857a43.044,43.044,0,0,0,34.255-50.321l-82.388-433.715a43.045,43.045,0,0,0-50.321-34.255L852.659,328.178A43.044,43.044,0,0,0,818.4,378.5l82.388,433.715A43.044,43.044,0,0,0,951.113,846.469Z" transform="translate(-817.64 -284.198)" fill="#044884"/>
        <g id="Group_171" data-name="Group 171" transform="translate(25.608)">
          <path id="Path_195" data-name="Path 195" d="M1158.8,314.85a43.041,43.041,0,0,0-50.319-34.254L903.926,319.452a43.05,43.05,0,0,0-34.264,50.321L952.052,803.5a43.05,43.05,0,0,0,50.33,34.251l204.552-38.857a43.041,43.041,0,0,0,34.253-50.319m-14.749,2.8a28.067,28.067,0,0,1-22.306,32.769L999.58,823a28.06,28.06,0,0,1-32.769-22.306L884.421,366.97a28.051,28.051,0,0,1,22.308-32.758l204.552-38.857a28.058,28.058,0,0,1,32.767,22.3" transform="translate(-868.898 -279.832)" fill="#fff"/>
          <path id="Path_196" data-name="Path 196" d="M1241.491,766.427a28.067,28.067,0,0,1-22.306,32.769l-204.552,38.857a28.06,28.06,0,0,1-32.769-22.306l-82.39-433.724a28.051,28.051,0,0,1,22.308-32.758l204.552-38.857a28.058,28.058,0,0,1,32.767,22.3" transform="translate(-883.951 -294.885)" fill="#ccdae6"/>
          <path id="Path_197" data-name="Path 197" d="M1242.148,740.167,1213.42,605.012M932.229,699.144,952.052,803.5a43.05,43.05,0,0,0,50.33,34.251l178.843-33.973m12.61-309.107L1158.8,314.85a43.041,43.041,0,0,0-50.319-34.254L903.926,319.452a43.05,43.05,0,0,0-34.264,50.321l43.953,231.383" transform="translate(-868.898 -279.832)" fill="none" stroke="#090928" stroke-linecap="round" stroke-linejoin="round" stroke-width="8.408"/>
        </g>
        <g id="Group_183" data-name="Group 183" transform="translate(105.244 83.32)">
          <g id="Group_179" data-name="Group 179">
            <path id="Path_198" data-name="Path 198" d="M1210.24,517.815a85.185,85.185,0,0,1-14.428,69.639,87.4,87.4,0,0,1-13.547,14.665,89.563,89.563,0,0,1-25.337,15.354c-2.1.843-4.263,1.618-6.461,2.31-.619.2-1.244.388-1.87.573q-3.332.976-6.8,1.716a5.68,5.68,0,0,1-.639.133l-.021,0c-.341.083-.693.152-1.033.219q-3.993.781-7.967,1.211-1.312.138-2.627.24a94.71,94.71,0,0,1-35.959-3.991l-.023-.008q-3.9-1.2-7.661-2.743c-27.168-11.056-48.627-34.339-55.4-64.146-10.916-48.055,20.477-94.888,70.124-104.6S1199.324,469.76,1210.24,517.815Z" transform="translate(-1028.303 -446.612)" fill="#fff"/>
            <g id="Group_178" data-name="Group 178" transform="translate(58.325 44.726)">
              <g id="Group_172" data-name="Group 172">
                <path id="Path_199" data-name="Path 199" d="M1146.675,554.222a8.961,8.961,0,0,1-.608-1.022c-2.761-5.465.468-11.567,5.306-14.63a17.588,17.588,0,0,1,17.7-.089,11.692,11.692,0,0,1,4.754,6.72c.427,1.36.641,2.877,1.672,3.9,1.654,1.639,4.242,1.5,6.382,1.274a22.5,22.5,0,0,1,16.886,5.5c3.862,3.468,6.4,8.984,4.679,13.956a6.462,6.462,0,0,1-2.868,3.693c-2.646,1.416-6.142.389-8.65-.924-3.672-1.922-4.593-5.429-7.1-8.291s-6.477-3.691-10.127-3.036a15.85,15.85,0,0,0-8.489,4.533,15.373,15.373,0,0,0-1.255,1.462c-.239.55-.5,1.153-.771,1.788s-.573,1.3-.889,1.972c-.353.522-.68,1.094-1,1.685-1.241,3.051-2.9,5.28-5.956,6.529-3.268,1.334-6.507-2.13-6.816-5.072-.382-3.628,2.81-6.458,3.459-9.859a6,6,0,0,0,.048-2.05,8.294,8.294,0,0,0-1.118-2.154,16.128,16.128,0,0,0-1.6-1.911A32.714,32.714,0,0,1,1146.675,554.222Z" transform="translate(-1145.051 -536.137)" fill="#090928"/>
              </g>
              <g id="Group_173" data-name="Group 173" transform="translate(12.072 79.605)">
                <path id="Path_200" data-name="Path 200" d="M1240.824,713.8a72.235,72.235,0,0,1-20.448,12.393c-1.7.677-3.429,1.3-5.2,1.861-.5.158-1.005.311-1.51.463q-2.69.788-5.488,1.385a4.655,4.655,0,0,1-.515.107l-.017,0c-.275.067-.56.123-.835.176q-3.222.631-6.43.977c-.716.077-1.427.142-2.141.2a76.456,76.456,0,0,1-29.026-3.221.012.012,0,0,1,0-.007,52.774,52.774,0,0,1,5.829-14.982,35.962,35.962,0,0,1,7.355-8.871l0,0a36.119,36.119,0,0,1,17.1-8.032,37.4,37.4,0,0,1,19.327,1.119,40.411,40.411,0,0,1,10.923,5.676A56.2,56.2,0,0,1,1240.824,713.8Z" transform="translate(-1169.215 -695.48)" fill="#090928"/>
              </g>
              <g id="Group_174" data-name="Group 174" transform="translate(24.786 71.028)">
                <path id="Path_201" data-name="Path 201" d="M1194.664,684.66l32.446-6.349,7.435,17.483-39.079,7.647Z" transform="translate(-1194.664 -678.311)" fill="#090928"/>
              </g>
              <g id="Group_176" data-name="Group 176" transform="translate(7.872 23.41)">
                <g id="Group_175" data-name="Group 175">
                  <path id="Path_202" data-name="Path 202" d="M1205,589.179a11.472,11.472,0,0,0-1.444-.436,26.463,26.463,0,0,1-7.549-3.115,18.6,18.6,0,0,0-13.1-2.284c-4.315.844-7.593,3.4-10.41,6.226-2.422,2.426-4.413,4.654-7.174,6.356a10.642,10.642,0,0,0-1.827,1.422,8.675,8.675,0,0,0-.259,12.3,9.317,9.317,0,0,0,10.394,2.277,18.6,18.6,0,0,0,16.991,5.384,17.346,17.346,0,0,0,13.139-11.1,8.676,8.676,0,0,0,6.947-5.955A8.99,8.99,0,0,0,1205,589.179Z" transform="translate(-1160.808 -582.996)" fill="#ea676c"/>
                </g>
              </g>
              <g id="Group_177" data-name="Group 177" transform="translate(17.71 43.757)">
                <path id="Path_203" data-name="Path 203" d="M1211.757,624.287l-.22.144a8.653,8.653,0,0,1-8.8.266,8.1,8.1,0,0,0-5.4-.822,7.654,7.654,0,0,0-4.7,2.928,8.226,8.226,0,0,1-8.161,2.989l-.13-.025a3.122,3.122,0,0,0-3.284,4.8,20.257,20.257,0,0,0,20.576,8.375h0a18.8,18.8,0,0,0,15.219-15.609A3.289,3.289,0,0,0,1211.757,624.287Z" transform="translate(-1180.501 -623.724)" fill="#090928"/>
              </g>
            </g>
          </g>
          <g id="Group_180" data-name="Group 180" transform="translate(33.775 286.081)">
            <path id="Path_204" data-name="Path 204" d="M1468.725,1061.692l-16.94,2.617-11.11-42.4,16.614-2.567a8.265,8.265,0,0,1,9.01,5.9l7.657,28.359A6.326,6.326,0,0,1,1468.725,1061.692Z" transform="translate(-1268.437 -1019.251)" fill="#fff"/>
            <path id="Path_205" data-name="Path 205" d="M1141.609,1109.533l-28.785,4.446a8.255,8.255,0,0,1-9-5.9l-7.661-28.358a6.327,6.327,0,0,1,5.23-8.1l29.11-4.5Z" transform="translate(-1095.911 -1043.21)" fill="#fff"/>
            <path id="Path_206" data-name="Path 206" d="M1313.9,1066.967l-137.651,21.265-11.11-42.4,137.651-21.265Z" transform="translate(-1130.556 -1021.909)" fill="#fff"/>
          </g>
          <g id="Group_181" data-name="Group 181" transform="translate(13.615 206.072)">
            <path id="Path_207" data-name="Path 207" d="M1428.8,901.541l-16.515,2.551-11.111-42.4,16.189-2.5a8.259,8.259,0,0,1,9.009,5.9l7.657,28.359A6.326,6.326,0,0,1,1428.8,901.541Z" transform="translate(-1228.508 -859.1)" fill="#fff"/>
            <path id="Path_208" data-name="Path 208" d="M1101.679,949.25l-29.209,4.512a8.255,8.255,0,0,1-9-5.9L1055.8,919.5a6.324,6.324,0,0,1,5.23-8.1l29.534-4.563Z" transform="translate(-1055.556 -882.992)" fill="#fff"/>
            <path id="Path_209" data-name="Path 209" d="M1274.4,906.684,1136.75,927.949l-11.111-42.4L1263.29,864.28Z" transform="translate(-1090.627 -861.692)" fill="#fff"/>
          </g>
          <g id="Group_182" data-name="Group 182" transform="translate(64.172 304.106)">
            <path id="Path_210" data-name="Path 210" d="M1172.707,1100.374a6.964,6.964,0,0,1-5.759,8.917,9.094,9.094,0,0,1-9.921-6.495,6.963,6.963,0,0,1,5.759-8.917A9.1,9.1,0,0,1,1172.707,1100.374Z" transform="translate(-1156.754 -1074.574)" fill="#8eb8ff"/>
            <path id="Path_211" data-name="Path 211" d="M1234.81,1090.78a6.963,6.963,0,0,1-5.759,8.917,9.094,9.094,0,0,1-9.921-6.495,6.963,6.963,0,0,1,5.759-8.917A9.094,9.094,0,0,1,1234.81,1090.78Z" transform="translate(-1187.831 -1069.773)" fill="#2295d6"/>
            <path id="Path_212" data-name="Path 212" d="M1297.85,1081.042a6.963,6.963,0,0,1-5.759,8.917,9.093,9.093,0,0,1-9.921-6.495,6.963,6.963,0,0,1,5.759-8.917A9.094,9.094,0,0,1,1297.85,1081.042Z" transform="translate(-1219.378 -1064.899)" fill="#035aa7"/>
            <ellipse id="Ellipse_17" data-name="Ellipse 17" cx="7.505" cy="8.385" rx="7.505" ry="8.385" transform="translate(89.285 14.157) rotate(-55.369)" fill="#044884"/>
            <path id="Path_213" data-name="Path 213" d="M1421.614,1061.922a6.963,6.963,0,0,1-5.759,8.917,9.1,9.1,0,0,1-9.921-6.495,6.963,6.963,0,0,1,5.759-8.917A9.094,9.094,0,0,1,1421.614,1061.922Z" transform="translate(-1281.311 -1055.331)" fill="#183c6c"/>
          </g>
        </g>
      </g>
      <path id="Path_214" data-name="Path 214" d="M544.2,701.033H416.369a29.443,29.443,0,0,1,29.447-29.447,29.11,29.11,0,0,1,4.884.4,40.248,40.248,0,0,1,74.786,7.278A22.022,22.022,0,0,1,544.2,701.033Z" transform="translate(-21853.588 -6186.113)" fill="#069"/>
      <g id="Group_199" data-name="Group 199" transform="translate(-21401.088 -5381.066)">
        <g id="Group_198" data-name="Group 198" transform="translate(0)">
          <path id="Path_234" data-name="Path 234" d="M742.328,863.957c-5.455.416-10.664.61-15.631.61-64.01,0-87.291-32.469-93.266-42.583a2.9,2.9,0,0,0-2.493-1.424,2.853,2.853,0,0,0-1.429.378,2.89,2.89,0,0,0-1.055,1.041c-6.008,10.1-29.658,42.588-93.668,42.588-4.972,0-10.176-.194-15.631-.61a3.5,3.5,0,0,0-3.771,3.619c.918,25.566,10.711,168.271,115.355,220.76,104.649-52.49,114.442-195.194,115.36-220.76A3.507,3.507,0,0,0,742.328,863.957ZM630.739,1074.541c-84.017-46.515-99.676-159.409-102.586-197.872q3.357.1,6.633.1c52.991,0,81.959-21.152,95.953-36.409,14,15.257,42.971,36.409,95.958,36.409q3.272,0,6.633-.1C730.42,915.118,714.766,1028.022,630.739,1074.541Z" transform="translate(-515.382 -820.56)" fill="#044884"/>
          <path id="Path_235" data-name="Path 235" d="M747.554,898.725c-2.91,38.448-18.564,151.353-102.591,197.872-84.017-46.515-99.676-159.409-102.586-197.872q3.357.1,6.633.1c52.991,0,81.959-21.152,95.953-36.409,14,15.257,42.971,36.409,95.958,36.409Q744.192,898.829,747.554,898.725Z" transform="translate(-529.606 -842.616)" fill="#035aa7"/>
        </g>
      </g>
      <text id="اسم_المتسخدم" data-name="اسم المتسخدم" transform="translate(-21132.828 -5337.706) rotate(-8)" fill="#183c6c" font-size="34" font-family="Somar-Regular, Somar"><tspan x="0" y="0">اسم المتسخدم</tspan></text>
      <g id="Group_5037" data-name="Group 5037" transform="translate(1.566 60.844)">
        <g id="Group_197" data-name="Group 197" transform="translate(-20932.328 -5489.322)">
          <g id="Group_195" data-name="Group 195" transform="translate(20.456 29.416)">
            <g id="Group_185" data-name="Group 185" transform="translate(3.238 10.534)">
              <path id="Path_216" data-name="Path 216" d="M1661.837,835.434a53.153,53.153,0,0,1-34.5-12.678c-13.239-11.278-22.663-28.559-28.008-51.362a16.535,16.535,0,1,1,32.2-7.547c3.7,15.783,9.505,27.133,17.256,33.735a19.982,19.982,0,0,0,18.458,4.057,20.779,20.779,0,0,0,14.386-13.394l8.37-24.084a16.536,16.536,0,0,1,31.238,10.857l-8.371,24.084a54.1,54.1,0,0,1-51.031,36.331Z" transform="translate(-1598.893 -751.081)" fill="#035aa7"/>
            </g>
            <path id="Path_218" data-name="Path 218" d="M1591.159,1351.056h20.417c6.273,0,12.4-2.716,17.64-5.964,4.2-2.6,10.516-7.845,15.658-4.69,3.082,1.891,5.191,5.426,7.038,8.431a4.668,4.668,0,0,0,3.977,2.223h1.058a6.56,6.56,0,0,0,6.549-6.94l-1.683-28.992-41.211-5.443C1604.776,1319.477,1595.937,1334.623,1591.159,1351.056Z" transform="translate(-1591.159 -1065.282)"/>
            <path id="Path_219" data-name="Path 219" d="M1977.052,1351.056h-20.417c-6.273,0-12.4-2.716-17.639-5.964-4.2-2.6-10.516-7.845-15.658-4.69-3.082,1.891-5.191,5.426-7.038,8.431a4.667,4.667,0,0,1-3.976,2.223h-1.058a6.56,6.56,0,0,1-6.549-6.94l1.683-28.992,41.211-5.443C1963.434,1319.477,1972.273,1334.623,1977.052,1351.056Z" transform="translate(-1773.434 -1065.282)"/>
            <g id="Group_186" data-name="Group 186" transform="translate(104.734 77.71)">
              <path id="Path_220" data-name="Path 220" d="M1911.116,1076.029,1883.48,928.875a21.26,21.26,0,0,0-41.789,7.848l27.636,147.154C1871.245,1094.091,1913.283,1087.569,1911.116,1076.029Z" transform="translate(-1841.322 -911.535)" fill="#ea676c"/>
            </g>
            <g id="Group_187" data-name="Group 187" transform="translate(29.1 85.447)">
              <path id="Path_221" data-name="Path 221" d="M1701.888,1095.75,1739.24,956.8a21.26,21.26,0,1,0-41.061-11.038l-37.353,138.95C1657.778,1096.05,1699.336,1105.241,1701.888,1095.75Z" transform="translate(-1660.666 -930.015)" fill="#ea676c"/>
            </g>
            <path id="Path_222" data-name="Path 222" d="M1741.695,837.737a174.134,174.134,0,0,0,99.016,0c1.881-.544.483-24.247.293-27.12a129.161,129.161,0,0,0-4.371-25.567c-4.812-17.587-19.184-30.236-30.163-41.1s-8.563-2.35-13.752-2.35c-20.945,0-33.794,14.907-40.577,33.3a183.914,183.914,0,0,0-7.87,28.578C1743.586,807.044,1738.948,836.937,1741.695,837.737Z" transform="translate(-1678.17 -734.865)" fill="#035aa7"/>
            <path id="Path_223" data-name="Path 223" d="M1853.075,725.921H1818.7l-3.514,19.842h41.4Z" transform="translate(-1721.395 -725.921)" fill="#035aa7"/>
            <g id="Group_188" data-name="Group 188" transform="translate(31.647 82.103)">
              <path id="Path_224" data-name="Path 224" d="M1696.668,961.406c-11.134-1.143-23.018-3.018-26.733-8.255a5.965,5.965,0,0,1-.965-5.034,6.7,6.7,0,0,1,3.088-4.2l-.153-.036a6.716,6.716,0,0,1,3.123-13.064l4.32,1.033a6.836,6.836,0,0,1-.8-5.1c1.436-5.6,7.818-4.791,9.916-4.527,1.623.2,3.508.394,5.69.613,3.18.32,6.784.682,10.561,1.2l-.342,2.514c-3.733-.508-7.313-.868-10.472-1.185-2.108-.212-4.1-.411-5.755-.62-4.39-.555-6.525.236-7.141,2.64a4.3,4.3,0,0,0,.563,3.247,4.174,4.174,0,0,0,2.527,1.96l.027.007,5.059,1.21,1.8.43-1.048,1.523c-.051.074-.1.149-.147.223l-.551.842-14.8-3.538a4.179,4.179,0,1,0-1.944,8.129l14.734,3.523.084.906c.019.2.045.406.071.607l.246,1.832-11.156-2.667a4.183,4.183,0,0,0-5.037,3.093,3.483,3.483,0,0,0,.567,2.977c3.55,5.005,19.078,6.6,24.923,7.2Z" transform="translate(-1666.749 -922.028)" fill="#090928"/>
            </g>
            <g id="Group_189" data-name="Group 189" transform="translate(77.252 18.706)" style="isolation: isolate">
              <path id="Path_225" data-name="Path 225" d="M1827.549,885.539q-1.455,0-2.935-.053c-16.488-.588-31.372-5.873-38.776-8.971a16.535,16.535,0,1,1,12.766-30.508c9.064,3.793,18.974,6.136,27.187,6.429,8.662.307,15.1-1.5,19.138-5.363,4.371-4.187,6.245-11.167,4.774-17.783-2.071-9.316-9.766-19.06-22.873-28.959a16.535,16.535,0,0,1,19.932-26.389c19.825,14.974,31.347,30.732,35.223,48.173,3.985,17.928-1.448,36.641-14.178,48.837C1857.818,880.524,1843.945,885.539,1827.549,885.539Z" transform="translate(-1775.681 -770.601)" fill="#035aa7"/>
            </g>
            <g id="Group_192" data-name="Group 192" transform="translate(75.988 57.153)">
              <g id="Group_190" data-name="Group 190" transform="translate(17.016 68.824)">
                <path id="Path_226" data-name="Path 226" d="M1849.429,1035.76h-.008c-.981,0-1.984-.018-2.98-.054a113.041,113.041,0,0,1-32.285-6.415,1.268,1.268,0,0,1,.836-2.4,110.448,110.448,0,0,0,31.539,6.275c.97.034,1.954.054,2.9.052a72.207,72.207,0,0,0,10.624-.765,1.268,1.268,0,1,1,.375,2.509A74.75,74.75,0,0,1,1849.429,1035.76Z" transform="translate(-1813.305 -1026.826)"/>
              </g>
              <g id="Group_191" data-name="Group 191">
                <path id="Path_227" data-name="Path 227" d="M1790.946,933.8a1.267,1.267,0,0,1-.418-.071c-2.376-.83-4.71-1.722-6.936-2.654a17.8,17.8,0,1,1,13.746-32.847c15.533,6.5,36.228,9.686,44.959,1.32,4.057-3.887,5.789-10.4,4.413-16.592-1.314-5.91-5.052-12.09-11.11-18.369a1.268,1.268,0,0,1,1.825-1.761c6.387,6.62,10.344,13.207,11.761,19.58,1.564,7.039-.451,14.486-5.134,18.973-9.556,9.156-31.422,6-47.693-.811a15.267,15.267,0,1,0-11.787,28.167c2.179.912,4.464,1.787,6.792,2.6a1.269,1.269,0,0,1-.418,2.466Z" transform="translate(-1772.662 -862.434)"/>
              </g>
            </g>
            <path id="Path_231" data-name="Path 231" d="M1837.124,755.151h9.247a4.873,4.873,0,0,0,4.873-4.873h0a4.873,4.873,0,0,0-4.873-4.873h-9.247a4.873,4.873,0,0,0-4.873,4.873h0A4.873,4.873,0,0,0,1837.124,755.151Z" transform="translate(-1731.315 -737.248)" fill="#ea676c"/>
            <path id="Path_232" data-name="Path 232" d="M1840.524,758.514c-2.859.628-4.768,40.17,4.9,68.663l-10.757-11.858-13.177,6.261c-1.183-9.5,7.821-69.133,13.645-64.253Z" transform="translate(-1725 -744.014)" fill="#ea676c"/>
          </g>
          <g id="Group_196" data-name="Group 196" transform="translate(0 0)">
            <path id="Path_233" data-name="Path 233" d="M1553.844,696.093a1.267,1.267,0,0,1-1.07-.586c-6.025-9.433-11.943-19.907-10.149-26.073a5.965,5.965,0,0,1,3.344-3.884,6.669,6.669,0,0,1,5.135-.223l.072.027-.064-.139a6.716,6.716,0,0,1,12.175-5.672l1.876,4.026a6.833,6.833,0,0,1,3.5-3.792c5.274-2.354,8.612,3.147,9.708,4.954.848,1.4,1.87,2.99,3.053,4.833,1.727,2.691,3.684,5.741,5.631,9.022a1.268,1.268,0,1,1-2.182,1.294c-1.923-3.243-3.868-6.272-5.583-8.946-1.143-1.781-2.223-3.464-3.087-4.888-2.3-3.782-4.24-4.965-6.506-3.953a4.3,4.3,0,0,0-2.194,2.458,4.176,4.176,0,0,0,.035,3.2l0,.005,2.206,4.735a1.269,1.269,0,0,1-1.065,1.8c-.092.006-.183.015-.275.024l-.1.01a1.266,1.266,0,0,1-1.267-.727l-6.049-12.984a4.179,4.179,0,0,0-7.576,3.53l6.014,12.907a1.268,1.268,0,0,1-.273,1.452c-.148.142-.29.288-.431.435a1.269,1.269,0,0,1-2.064-.344l-4.064-8.723a4.179,4.179,0,0,0-5.553-2.023,3.485,3.485,0,0,0-1.979,2.294c-1.715,5.892,6.688,19.047,9.851,24a1.268,1.268,0,0,1-1.067,1.951Z" transform="translate(-1542.299 -655.66)" fill="#090928"/>
          </g>
        </g>
        <g id="Group_5035" data-name="Group 5035" transform="translate(-20827.145 -5526.299)">
          <g id="Group_23" data-name="Group 23" transform="translate(0 13.137)">
            <ellipse id="Ellipse_3" data-name="Ellipse 3" cx="19.924" cy="19.924" rx="19.924" ry="19.924" transform="translate(18.459 53.774) rotate(-117.596)" fill="#fff"/>
            <g id="Group_22" data-name="Group 22" transform="translate(5.082 5.088)">
              <path id="Path_27" data-name="Path 27" d="M512.219,784.675a21.8,21.8,0,1,0-21.233-26.731h0a21.807,21.807,0,0,0,21.233,26.731Zm0-39.854a18.053,18.053,0,1,1-17.582,13.97A18,18,0,0,1,512.216,744.821Z" transform="translate(-490.413 -741.076)" fill="#090928"/>
            </g>
          </g>
          <path id="Path_28" data-name="Path 28" d="M480.952,746.141a40.382,40.382,0,0,0,18.892.712c3.882-.8,7.054-3.011,10.242-.655a9.943,9.943,0,0,1,3.552,10c-.21.918.6,3.173.3,4.357-.268,1.051-1.814.849-1.718,1.765.868,8.25,10.285,7.278,15.484,3.832,6.386-4.233,10.6-14.643,3.434-20.3a8.6,8.6,0,0,0-3.035-1.462c-2.286-.634-5.029-.063-6.823-1.617-2.917-2.53-.368-6.769-.078-9.834,1.36-14.38-15.662-17.976-26.182-15.441a29.009,29.009,0,0,0-15.866,10.01c-3.218,3.979-5.872,12.835-1.329,16.963A8.4,8.4,0,0,0,480.952,746.141Z" transform="translate(-474.946 -716.747)" fill="#090928"/>
          <g id="Group_32" data-name="Group 32" transform="translate(23.806 26.627)">
            <path id="Path_35" data-name="Path 35" d="M496.989,754.329c3.813-.812,8.683-1.879,12.242.324a9.718,9.718,0,0,1,3.668,11.135,4.577,4.577,0,0,1-3.863,3.018Z" transform="translate(-495.371 -751.734)" fill="#fff"/>
            <g id="Group_31" data-name="Group 31">
              <path id="Path_36" data-name="Path 36" d="M508.151,769.545a1.664,1.664,0,0,0,.224-.016,6.17,6.17,0,0,0,5.145-4.026,11.322,11.322,0,0,0-4.321-13.1c-4.078-2.524-9.42-1.386-13.32-.555l-.11.023a1.618,1.618,0,0,0,.674,3.164l.11-.024c3.551-.757,7.972-1.7,10.944.141a8.142,8.142,0,0,1,3.014,9.165,2.982,2.982,0,0,1-2.58,2.01,1.617,1.617,0,0,0,.22,3.219Z" transform="translate(-494.488 -750.855)" fill="#090928"/>
            </g>
          </g>
        </g>
      </g>
    </g>
  </g>
</svg>
