<svg xmlns="http://www.w3.org/2000/svg" xmlns:xlink="http://www.w3.org/1999/xlink" width="826.673" height="628.393" viewBox="0 0 826.673 628.393">
  <defs>
    <linearGradient id="linear-gradient" x1="0.5" x2="0.5" y2="1" gradientUnits="objectBoundingBox">
      <stop offset="0" stop-color="#e7d9ea"/>
      <stop offset="0" stop-color="#16c79a"/>
      <stop offset="0.133" stop-color="#149e95"/>
      <stop offset="0.308" stop-color="#11698e"/>
      <stop offset="0.546" stop-color="#19456b"/>
      <stop offset="0.707" stop-color="#30376a"/>
      <stop offset="0.93" stop-color="#512368"/>
    </linearGradient>
  </defs>
  <g id="Group_5041" data-name="Group 5041" transform="translate(22395.665 5726)">
    <path id="Path_5681" data-name="Path 5681" d="M799.513,710.131c12.186-39.307-214.1-10.685-408.125-22.9s-366.194-11.218-367.027,22.9,257.109,16.792,451.136,29S787.327,749.437,799.513,710.131Z" transform="translate(-22420.023 -5843.387)" fill="#f6f6f6"/>
    <g id="Group_203" data-name="Group 203" transform="translate(-22276.98 -5718.844)" opacity="0">
      <g id="Group_71" data-name="Group 71" transform="translate(0 0)">
        <g id="Group_1" data-name="Group 1" transform="translate(34.524 0)">
          <path id="Path_1" data-name="Path 1" d="M650.782,308.948,642.2,281.767a6.94,6.94,0,0,0-8.707-4.529l-15.188,4.794a61.873,61.873,0,0,0-4.19-4.975l7.309-14.108a6.94,6.94,0,0,0-2.97-9.354l-24.592-12.74a6.939,6.939,0,0,0-9.354,2.97l-7.327,14.143a61.706,61.706,0,0,0-6.162-.534l-4.794-15.188a6.939,6.939,0,0,0-8.707-4.529l-26.411,8.336a6.94,6.94,0,0,0-4.529,8.707l4.783,15.153a61.8,61.8,0,0,0-5.807,4.971l-14.278-7.066a6.939,6.939,0,0,0-9.3,3.141L489.7,295.781a6.94,6.94,0,0,0,3.141,9.3l14.24,7.047q-.315,2.606-.4,5.25L491.52,322.16a6.939,6.939,0,0,0-4.529,8.706l8.337,26.412a6.939,6.939,0,0,0,8.706,4.529l15.188-4.794a61.684,61.684,0,0,0,5.291,6.12l-7.323,15.01a6.939,6.939,0,0,0,3.075,9.22l25,12.8a6.939,6.939,0,0,0,9.4-3.135l7.664-15.708q2.078.217,4.18.294l5.391,17.079a6.939,6.939,0,0,0,8.706,4.529l26.411-8.336a6.94,6.94,0,0,0,4.529-8.707l-5.38-17.044q2.421-1.826,4.637-3.866l15.488,8.006a6.94,6.94,0,0,0,9.411-3.1l12.425-25.212a6.94,6.94,0,0,0-3.038-9.233L630.3,328.084q.386-2.756.523-5.56l15.429-4.87A6.939,6.939,0,0,0,650.782,308.948Z" transform="translate(-486.668 -237.394)" fill="#ff7600"/>
          <circle id="Ellipse_1" data-name="Ellipse 1" cx="43.134" cy="43.134" r="43.134" transform="translate(21.395 83.074) rotate(-45)" fill="#fff"/>
        </g>
        <g id="Group_12" data-name="Group 12" transform="translate(426.73 1.112)">
          <g id="Group_4" data-name="Group 4" transform="translate(26.716 54.826)">
            <g id="Group_2" data-name="Group 2" transform="translate(77.631)">
              <path id="Path_2" data-name="Path 2" d="M1319.18,301.9a1.461,1.461,0,0,1-1.181-2.32c2.432-3.347,9.831-13.533,8.806-18.046a2.281,2.281,0,0,0-1.22-1.6,2.836,2.836,0,0,0-3.84,1.144l-3.609,6.673a1.46,1.46,0,0,1-2.4.253c-.1-.117-.2-.234-.306-.347a1.459,1.459,0,0,1-.214-1.689l5.34-9.873a2.833,2.833,0,1,0-4.984-2.7l-5.372,9.932a1.462,1.462,0,0,1-1.5.749l-.086-.013c-.066-.01-.131-.02-.2-.029a1.461,1.461,0,0,1-1.1-2.144l1.96-3.623a2.832,2.832,0,0,0,.144-2.163,2.929,2.929,0,0,0-1.382-1.765c-1.1-.572-2.431-.644-4.714,2.658-.751,1.086-1.683,2.362-2.668,3.713-1.473,2.019-3.142,4.307-4.8,6.76a1.461,1.461,0,1,1-2.418-1.638c1.69-2.495,3.375-4.805,4.862-6.844,1.017-1.394,1.9-2.6,2.626-3.654,1-1.453,4.063-5.874,8.464-3.587a5.712,5.712,0,0,1,2.418,2.487l1.205-2.228a5.755,5.755,0,0,1,10.467,4.716,5.727,5.727,0,0,1,3.5.64,5.212,5.212,0,0,1,2.678,3.517c1.162,5.115-4.044,13.188-9.29,20.411A1.46,1.46,0,0,1,1319.18,301.9Z" transform="translate(-1293.179 -268.99)"/>
            </g>
            <g id="Group_3" data-name="Group 3" transform="translate(0 30.633)">
              <path id="Path_3" data-name="Path 3" d="M1200.759,375.051a37.943,37.943,0,0,1-6.072-.487c-13.718-2.22-25.617-11.933-31.052-25.351a49.742,49.742,0,0,1-3.223-12.646,13.034,13.034,0,0,1,25.877-3.159,23.658,23.658,0,0,0,1.508,6.016c2.006,4.951,6.345,8.643,11.055,9.4,9.849,1.594,22.245-9.985,29.587-21.42a13.035,13.035,0,1,1,21.935,14.087c-3.419,5.323-10.713,15.413-21.15,23.171C1220,371.522,1210.275,375.051,1200.759,375.051Z" transform="translate(-1160.313 -321.418)" fill="#c471ed"/>
            </g>
          </g>
          <g id="Group_5" data-name="Group 5" transform="translate(0 67.7)">
            <path id="Path_4" data-name="Path 4" d="M1164.864,301.3q-.373-.2-.75-.386l-.014-8.073-16.774-1.822s-1.528,6.9-1.54,6.949c-.113.493-2.061.737-2.508.9-6.447,2.279-11.473,8.712-12.536,15.413a29.086,29.086,0,0,0,1.763,14.208,44.853,44.853,0,0,0,3.817,7.973c.243.4-5.22,3.03-5.775,3.385-9.968,6.383-14.6,18.678-14.528,30.131.014,2.334-3.056,7.322-.243,8.353,39.2,14.38,68.081,12.442,75.743.538,0,0-16.8-33.763-18.515-45.814a6.869,6.869,0,0,1,.986-2.933A21.732,21.732,0,0,0,1164.864,301.3Z" transform="translate(-1114.589 -291.023)" fill="#c471ed"/>
          </g>
          <g id="Group_7" data-name="Group 7" transform="translate(19.522 31.674)">
            <path id="Path_5" data-name="Path 5" d="M1162.806,231.145a14.648,14.648,0,1,1-13.026,16.108A14.649,14.649,0,0,1,1162.806,231.145Z" transform="translate(-1148.706 -230.071)" fill="#fff"/>
            <g id="Group_6" data-name="Group 6">
              <path id="Path_6" data-name="Path 6" d="M1163.612,260.649a15.658,15.658,0,1,1,1.675-.089A16,16,0,0,1,1163.612,260.649Zm.056-29.3a13.812,13.812,0,0,0-1.462.078,13.6,13.6,0,1,0,1.462-.078Z" transform="translate(-1148.001 -229.365)" fill="#11698e"/>
            </g>
          </g>
          <path id="Path_7" data-name="Path 7" d="M1170.438,215.718c5.166,5.323,1.957,14.567-2.172,19.522-5.059,6.072-16.9,11.389-23.94,5.631-3.119-2.55-5.064-7.289-2.85-10.993,1.811-3.03,5.429-4.792,8.715-5.7,5.257-1.451,11.084-1.4,15.887-4.245a13.68,13.68,0,0,0,3.23-2.639C1169.391,217.2,1170.566,215.849,1170.438,215.718Z" transform="translate(-1125.371 -192.018)" fill="#090928"/>
          <path id="Path_8" data-name="Path 8" d="M1189.325,188.723a20.917,20.917,0,0,1,6.3-.367c.4.018,5.733.389,5.619.855,0,0,.7-2.815,1.011-3.691a5.955,5.955,0,0,1,5.019-3.5c2.133-.253,5.332.605,7.413,1.139-.831-.214-.064-4.338.192-4.923,1.216-2.775,6.42-3.371,9.012-2.97,2.324.359,4.595,2.055,4.9,4.387a5.891,5.891,0,0,1-1.606,4.4,13.669,13.669,0,0,1-3.929,3.282c-.667.365-3.02,1.651-3.6.619,1.482,2.624.173,7.555-2.438,9.058-2.308,1.329-5.791,1.248-8.3.709.332.071-1.009,5.63-1.177,6.163-2.082,6.588-8.517,11.15-15.5,9.425-7.58-1.873-12.771-11.5-9.562-18.775a10.591,10.591,0,0,1,4.841-5.121A9.345,9.345,0,0,1,1189.325,188.723Z" transform="translate(-1142.489 -175.155)" fill="#090928"/>
          <g id="Group_9" data-name="Group 9" transform="translate(39.691 35.216)">
            <path id="Path_9" data-name="Path 9" d="M1192.837,252.07a7.445,7.445,0,0,0,6.76-8.169,7.572,7.572,0,0,0-8.327-6.733c-4.159.439-7.455,3.644-7.015,7.8Z" transform="translate(-1183.225 -236.133)" fill="#fff"/>
            <g id="Group_8" data-name="Group 8">
              <path id="Path_10" data-name="Path 10" d="M1192.131,252.356a.992.992,0,0,1-.1-1.978,6.663,6.663,0,0,0,4.448-2.339,6.3,6.3,0,0,0,1.43-4.739,6.59,6.59,0,0,0-7.237-5.852c-3.858.408-6.5,3.294-6.133,6.712a.992.992,0,0,1-1.973.209c-.473-4.469,3-8.375,7.9-8.893a8.573,8.573,0,0,1,9.418,7.616,8.265,8.265,0,0,1-1.88,6.219,8.633,8.633,0,0,1-5.761,3.041C1192.2,252.354,1192.166,252.356,1192.131,252.356Z" transform="translate(-1182.52 -235.426)" fill="#11698e"/>
            </g>
          </g>
          <g id="Group_11" data-name="Group 11" transform="translate(48.533 76.603)">
            <g id="Group_10" data-name="Group 10">
              <path id="Path_11" data-name="Path 11" d="M1220.092,373.679a.993.993,0,0,1-.918-.615c-.434-1.055-10.649-25.9-11.836-29.855-1.141-3.8-1.07-4.532-.272-5.994l.075-.137c.066-.12.136-.284.214-.46.087-.2.181-.407.278-.6a20.809,20.809,0,0,0-8.7-27.5q-.36-.192-.726-.373a.992.992,0,0,1,.884-1.776q.389.194.774.4a22.806,22.806,0,0,1,9.548,30.137c-.085.169-.165.351-.241.522-.1.23-.2.442-.283.6l-.079.145c-.452.827-.588,1.076.432,4.473,1.159,3.863,11.665,29.412,11.771,29.669a.992.992,0,0,1-.917,1.37Z" transform="translate(-1197.653 -306.262)"/>
            </g>
          </g>
          <path id="Path_12" data-name="Path 12" d="M1176.509,213.8h0s-10.326,3.419-5.411,9.659,16.646,4.158,16.646,4.158l.6-.8C1182.874,224.141,1177.876,219.732,1176.509,213.8Z" transform="translate(-1137.529 -191.221)" fill="#11698e"/>
        </g>
        <g id="Group_16" data-name="Group 16" transform="translate(68.809 110.266)">
          <g id="Group_15" data-name="Group 15" transform="translate(0)">
            <path id="Path_13" data-name="Path 13" d="M958.8,1112.11l-145.7-15.725a35.1,35.1,0,0,0-38.664,31.132l-.452,4.187L925.017,1148a25.508,25.508,0,0,0,26.68-16.561Z" transform="translate(-615.073 -662.13)" fill="#8eb8ff"/>
            <path id="Path_14" data-name="Path 14" d="M860.728,1069.758l91.592,9.885a22.5,22.5,0,0,0,23.526-30.145l-39.536-107.33L808.654,928.391Z" transform="translate(-629.486 -592.377)" fill="#8eb8ff"/>
            <g id="Group_14" data-name="Group 14">
              <path id="Path_15" data-name="Path 15" d="M937.324,743.758c16.1,1.738,33.072-10.231,37.07-26.136l66.725-265.4c1.814-7.214.732-14.175-3.048-19.6-3.7-5.311-9.674-8.661-16.821-9.432L697.576,388.256,640.8,382.129c-16.1-1.737-33.072,10.232-37.07,26.137L529.255,672.957c-1.814,7.214,7.021,14.883,10.8,20.307,3.7,5.312,9.674,8.662,16.822,9.434Z" transform="translate(-513.234 -370.282)" fill="#11698e" opacity="0.2"/>
              <g id="Group_13" data-name="Group 13">
                <path id="Path_16" data-name="Path 16" d="M628.323,385.427l380.448,41.062c3.791.41,6.729,1.965,8.494,4.5,1.819,2.611,2.282,6.19,1.3,10.079l-66.725,265.4c-2.61,10.382-14.056,18.5-24.494,17.375L546.9,682.779c-3.792-.409-6.729-1.965-8.494-4.5-1.818-2.611-7.988-6.532-7.011-10.42L603.829,402.8c2.61-10.383,14.055-18.5,24.494-17.375Zm2.505-23.217c-21.977-2.372-44.205,13.253-49.647,34.9L502.761,659.1c-5.442,21.646,19.659,44.528,41.636,46.9l380.448,41.061c21.978,2.372,44.205-13.253,49.647-34.9l66.725-265.4c5.442-21.646-7.962-41.116-29.94-43.488L630.829,362.21Z" transform="translate(-502.008 -361.972)" fill="#11698e"/>
              </g>
            </g>
          </g>
        </g>
        <rect id="Rectangle_1" data-name="Rectangle 1" width="276.702" height="144.543" transform="translate(274.089 154.434) rotate(7.188)" fill="#fff"/>
        <rect id="Rectangle_2" data-name="Rectangle 2" width="149.932" height="54.39" transform="translate(298.69 180.487) rotate(7.188)" fill="#c4ddff"/>
        <rect id="Rectangle_3" data-name="Rectangle 3" width="199.932" height="30.073" transform="translate(289.281 255.097) rotate(7.188)" fill="#c4ddff"/>
        <rect id="Rectangle_4" data-name="Rectangle 4" width="58.071" height="54.39" transform="matrix(-0.992, -0.125, 0.125, -0.992, 517.504, 262.902)" fill="#c4ddff"/>
        <g id="Group_17" data-name="Group 17" transform="translate(350.964 294.785)">
          <path id="Path_18" data-name="Path 18" d="M1070.451,841.664h-83.2a2.338,2.338,0,0,1-2.337-2.337V680.114a2.337,2.337,0,0,1,2.337-2.337h135.839a2.337,2.337,0,0,1,2.337,2.337v71.86a2.337,2.337,0,1,1-4.674,0V682.451H989.59V836.99h80.861a2.337,2.337,0,0,1,0,4.674Z" transform="translate(-984.916 -677.777)" fill="#090928"/>
        </g>
        <g id="Group_19" data-name="Group 19" transform="translate(89.843 160.277)">
          <g id="Group_18" data-name="Group 18" transform="translate(17.453 26.513)">
            <path id="Path_19" data-name="Path 19" d="M770.388,684.667q-.433,0-.873-.043L655.992,673.7a2.337,2.337,0,0,1,.447-4.653l113.524,10.926a4.384,4.384,0,0,0,4.774-3.935l14.9-154.808a4.379,4.379,0,0,0-3.935-4.773L590.107,497.63a2.484,2.484,0,0,0-1.717.438,1.581,1.581,0,0,0-.667,1.091l-15.15,157.42a4.38,4.38,0,0,0,3.935,4.773l25.133,2.419a2.337,2.337,0,0,1-.448,4.653l-25.133-2.419a9.059,9.059,0,0,1-8.14-9.873l15.151-157.421a6.165,6.165,0,0,1,2.547-4.407,7.148,7.148,0,0,1,4.935-1.327L786.148,511.8a9.059,9.059,0,0,1,8.14,9.874l-14.9,154.808A9.063,9.063,0,0,1,770.388,684.667Z" transform="translate(-567.878 -492.943)" fill="#090928"/>
          </g>
          <rect id="Rectangle_5" data-name="Rectangle 5" width="216.837" height="32.622" rx="16" transform="matrix(1, 0.019, -0.019, 1, 0.612, 20.085)" fill="#512368"/>
          <rect id="Rectangle_45" data-name="Rectangle 45" width="216.837" height="32.622" rx="16" transform="translate(214.662 0) rotate(2)" fill="#512368"/>
          <rect id="Rectangle_6" data-name="Rectangle 6" width="87.642" height="34.621" transform="translate(50.59 142.066) rotate(5.648)" fill="#fff"/>
          <rect id="Rectangle_7" data-name="Rectangle 7" width="87.642" height="57.844" transform="translate(58.167 65.457) rotate(5.649)" fill="#fff"/>
          <path id="Path_186" data-name="Path 186" d="M0,0H57.844V57.844H0Z" transform="translate(160.99 75.627) rotate(5.648)" fill="#fff"/>
          <path id="Path_185" data-name="Path 185" d="M0,0H57.844V60.377H0Z" transform="translate(155.96 126.488) rotate(5.648)" fill="#fff"/>
          <circle id="Ellipse_2" data-name="Ellipse 2" cx="18.372" cy="18.372" r="18.372" transform="translate(80.392 80.877)" fill="#c4ddff"/>
          <path id="Path_20" data-name="Path 20" d="M710.8,612.869l-7.312,3.387-7.312,3.387.723-8.026.723-8.026,6.589,4.639Z" transform="translate(-603.763 -512.428)" fill="#fff"/>
        </g>
        <rect id="Rectangle_10" data-name="Rectangle 10" width="57.844" height="88.071" transform="translate(369.665 316.45)" fill="#8eb8ff"/>
        <rect id="Rectangle_11" data-name="Rectangle 11" width="57.844" height="27.704" transform="translate(369.665 417.654)" fill="#fff"/>
        <rect id="Rectangle_12" data-name="Rectangle 12" width="38.463" height="128.908" transform="translate(440.051 316.45)" fill="#fff"/>
        <rect id="Rectangle_13" data-name="Rectangle 13" width="132.742" height="32.622" rx="16" transform="translate(376.732 278.182)" fill="#512368"/>
        <g id="Group_62" data-name="Group 62" transform="translate(450.462 329.858)">
          <g id="Group_34" data-name="Group 34" transform="translate(18.091 58.888)">
            <path id="Path_38" data-name="Path 38" d="M1196.634,871.332a1.458,1.458,0,0,1-1.188-.609c-1.725-2.4-3.281-4.739-4.654-6.8-.938-1.408-1.749-2.624-2.473-3.654-1-1.423-4.046-5.755-.43-9.046a5.633,5.633,0,0,1,3.073-1.384l-1.609-1.826a5.674,5.674,0,0,1,8.516-7.5l6.68,7.583a1.461,1.461,0,0,1,.49,2.831c-.141.053-.283.106-.424.164a1.46,1.46,0,0,1-1.659-.383l-7.28-8.265a2.753,2.753,0,1,0-4.131,3.64l7.323,8.314a1.459,1.459,0,0,1,.182,1.671l-.039.07c-.033.058-.065.116-.1.176a1.46,1.46,0,0,1-2.393.293l-2.7-3.066a2.74,2.74,0,0,0-1.895-.824,2.842,2.842,0,0,0-2.073.667c-.89.81-1.4,2,.852,5.206.745,1.06,1.6,2.35,2.514,3.716,1.36,2.041,2.9,4.355,4.6,6.716a1.461,1.461,0,0,1-1.186,2.313Z" transform="translate(-1186.168 -838.591)" fill="#090928"/>
          </g>
          <path id="Path_39" data-name="Path 39" d="M1343.144,897.526a24.289,24.289,0,0,1,3.463-7.174c2.828-4.12,6.237-7.939,8.042-12.6,2.575-6.644,1.738-14.906-3.641-19.859-4.461-4.111-10.469-5.693-16.4-6.028a64.454,64.454,0,0,0-19.3,2.31c-7.166-3.218-14.9-5.836-22.81-5.946-8.369-.117-17.624,3.724-20.07,12.456-4.119,14.707,13.151,26.833,7.547,41.42-4.16,10.83-17.925,15.99-18.8,28.476a18.061,18.061,0,0,0,3.6,11.866c-7.48,2.944-19.375-.26-31.163,1.207a3.051,3.051,0,0,0-2.989,2.767,4.764,4.764,0,0,0,3.388,5.138c49.188,14.991,92.918,8.851,105.467,3.99a21.307,21.307,0,0,0,10.245-6.009c8.427-9,5.277-20.8-.955-29.922C1343.732,912.247,1341.025,905.068,1343.144,897.526Z" transform="translate(-1186.54 -783.71)" fill="#8eb8ff"/>
          <path id="Path_40" data-name="Path 40" d="M1338.328,1113.319c0,16.646-83.324,16.646-83.324,0l34.144-62.579h15.035Z" transform="translate(-1196.693 -867.897)" fill="#8eb8ff"/>
          <path id="Path_41" data-name="Path 41" d="M1190.3,1118.076l-24.084,33.531,2.306,0a34.026,34.026,0,0,0,27.2-13.645h0a4.351,4.351,0,0,1,4.276,3.521l1.958,10.081,8.565-.011.173-32.288Z" transform="translate(-1159.782 -895.89)" fill="#ff7600"/>
          <g id="Group_35" data-name="Group 35" transform="translate(39.114 82.343)">
            <path id="Path_42" data-name="Path 42" d="M1310.622,933.668q-.472.626-.985,1.232a109.716,109.716,0,0,1-42.689-7.155q-3.436-1.321-6.8-2.892a122.014,122.014,0,0,1-34.2-24.232,12.791,12.791,0,1,1,17.983-18.195A101.9,101.9,0,0,0,1263.25,897.6a81.808,81.808,0,0,0,40.267,11.713q-.6.99-1.264,1.931c-.718,1.017-1.323,7.3-.735,8.075C1304.721,923.532,1308.849,928.391,1310.622,933.668Z" transform="translate(-1222.149 -878.734)" fill="#ff7600"/>
          </g>
          <g id="Group_36" data-name="Group 36" transform="translate(44.04 125.993)">
            <path id="Path_43" data-name="Path 43" d="M1324.671,955.37c8.243,8.9,7.853,23.6.251,32.754-7.725,9.3-20.067,9.858-31.244,10.59l-27.315,1.784c-5.254.343-10.729.279-15.943,1.044a17.328,17.328,0,0,1-5.024-34.29q21.279-4.713,42.557-9.433c6.328-1.4,12.973-3.735,19.565-3.552a23.242,23.242,0,0,1,2.991.264c3.534.552,6.862-1.389,10.35-1.051A5.746,5.746,0,0,1,1324.671,955.37Z" transform="translate(-1230.58 -953.442)" fill="#090928"/>
          </g>
          <g id="Group_37" data-name="Group 37" transform="translate(28.125 134.46)">
            <path id="Path_44" data-name="Path 44" d="M1249.9,989.746l-23.594,67.491c-11.9,3.455-18.91,1.238-22.961-4.413.026-.121.055-.243.085-.366l13-71.679a17.327,17.327,0,0,1,33.473,8.966Z" transform="translate(-1203.341 -967.933)" fill="#090928"/>
          </g>
          <g id="Group_38" data-name="Group 38" transform="translate(71.92 7.713)">
            <path id="Path_45" data-name="Path 45" d="M1300.89,751.008a9.628,9.628,0,0,1,7.476,3.7c1.782,2.313,2.747,5.272,4.957,7.18,3.917,3.381,14.283,2.753,15.233,9.236.713,4.871-5.774,8.638-5,13.5.494,3.1,3.671,4.885,6.44,6.355,7.09,3.763,17.154,11.923,11.847,20.943-3.812,6.48-13.543,9.073-20.516,9.585-15.864,1.163-34.14-6.51-41.084-21.554-5.788-12.539,2.314-19.407,11.327-26.373,4.021-3.108,4.35-6.741,3.9-11.423s-1.528-10.133,4.62-11.071A6.61,6.61,0,0,1,1300.89,751.008Z" transform="translate(-1278.297 -751.005)" fill="#090928"/>
          </g>
          <g id="Group_41" data-name="Group 41" transform="translate(78.595 56.102)">
            <path id="Path_46" data-name="Path 46" d="M1347.623,904.135c-1.632,9.531-12.827,14.106-21.2,15.775-16.021,3.19-33.208-6.032-32-23.536a26.9,26.9,0,0,1,.385-3.065c.671-3.685,1.2-7.181,1.448-10.092.1-1.138.153-2.186.157-3.124a6.688,6.688,0,0,0-1.35-2.719,21.171,21.171,0,0,1-3.371-8.291,21.512,21.512,0,0,1,1.095-11.419,20.9,20.9,0,0,1,7.318-9.523c.224-.161.448-.318.675-.475l-1.059-7.848,16.064-4.006s2.406,6.506,2.421,6.553c.176.463,2.1.443,2.558.537.063.012.129.027.192.043,11.03,2.375,15.009,11.7,14.216,21.326a31.661,31.661,0,0,1-1.648,7.746q-.377,1.095-.828,2.154c-.487,1.146.251,7.416.989,8.048,4.022,3.437,9.084,7.314,11.933,12.1A14.014,14.014,0,0,1,1347.623,904.135Z" transform="translate(-1290.401 -834.649)" fill="#ff7600"/>
            <g id="Group_39" data-name="Group 39">
              <path id="Path_47" data-name="Path 47" d="M1319.351,920.694c-7.777,0-15.136-2.727-20.17-7.68-5.358-5.27-7.5-12.624-6.026-20.707a82.424,82.424,0,0,0,1.589-13.047,6.285,6.285,0,0,0-1.178-2.162,22.386,22.386,0,0,1,5.276-30.579l.2-.143-1.1-8.127,17.77-4.428.3.824s1.837,4.969,2.31,6.251a10.826,10.826,0,0,0,1.2.137,6.409,6.409,0,0,1,.745.08,18.018,18.018,0,0,1,12.861,9.308c3.3,6.309,3.216,15.24-.223,23.309-.314.882.273,6.056.785,6.968.525.448,1.067.9,1.62,1.367,6.333,5.319,14.217,11.939,12.594,21.405-2.008,11.717-17.33,15.646-21.979,16.571A33.717,33.717,0,0,1,1319.351,920.694Zm-19.23-80.964,1.025,7.58-.5.341q-.331.225-.655.459h0a20.412,20.412,0,0,0-4.8,27.883c1.344,1.971,1.522,2.764,1.519,3.278a84.179,84.179,0,0,1-1.621,13.387c-1.732,9.515,2.019,15.561,5.472,18.957,5.985,5.888,15.561,8.379,24.991,6.5,4.338-.864,18.632-4.5,20.428-14.978,1.432-8.358-5.663-14.315-11.922-19.572-.578-.486-1.145-.962-1.693-1.43-1.214-1.038-1.8-7.891-1.254-9.177,3.214-7.542,3.325-15.829.29-21.63-2.3-4.4-6.179-7.194-11.518-8.3-.1-.019-.282-.029-.494-.045-1.2-.09-2.432-.182-2.782-1.106-.015-.04-1.472-3.981-2.12-5.734Z" transform="translate(-1289.721 -833.822)" fill="#ff7600"/>
            </g>
            <g id="Group_40" data-name="Group 40" transform="translate(2.493 41.264)">
              <path id="Path_48" data-name="Path 48" d="M1322.083,952.841a29.472,29.472,0,0,1-19.412-7.266,24.866,24.866,0,0,1-8.621-20.77,28.467,28.467,0,0,1,.405-3.227c.719-3.952,1.2-7.3,1.43-9.955.095-1.1.146-2.1.151-2.955a7.547,7.547,0,0,0-1.094-1.937,1.461,1.461,0,1,1,2.411-1.65c1.422,2.078,1.609,2.963,1.6,3.555,0,.945-.059,2.036-.162,3.237-.237,2.744-.73,6.185-1.466,10.228a25.447,25.447,0,0,0-.364,2.9,22,22,0,0,0,7.636,18.379c6.025,5.3,39.994-2.433,37.556.241a22.073,22.073,0,0,1-10.24,7.116c-5.757,2.121-3.33,1.383-4.121,1.541A29.319,29.319,0,0,1,1322.083,952.841Zm-26.047-44.221v0Z" transform="translate(-1293.987 -904.445)" fill="#ff7600"/>
            </g>
          </g>
          <g id="Group_43" data-name="Group 43" transform="translate(74.325 15.683)">
            <circle id="Ellipse_4" data-name="Ellipse 4" cx="14.373" cy="14.373" r="14.373" transform="matrix(0.759, -0.651, 0.651, 0.759, 0, 18.71)" fill="#fff"/>
            <g id="Group_42" data-name="Group 42" transform="translate(4.44 4.44)">
              <path id="Path_49" data-name="Path 49" d="M1305.811,803.907a15.836,15.836,0,0,1-12.255-25.827h0a15.834,15.834,0,1,1,13.907,25.742A16.2,16.2,0,0,1,1305.811,803.907Zm-9.989-23.983a12.913,12.913,0,1,0,18.166-1.871,12.928,12.928,0,0,0-18.166,1.871Z" transform="translate(-1290.013 -772.244)" fill="#090928"/>
            </g>
          </g>
          <path id="Path_50" data-name="Path 50" d="M1333.394,803.6c2.465.508,6.605.055,8.272-1.994a7.431,7.431,0,0,0-1.077-10.453,8.77,8.77,0,0,0-2.166-1.3l-1.879-.65Z" transform="translate(-1229.281 -759.174)" fill="#fff"/>
          <g id="Group_45" data-name="Group 45" transform="translate(104.226 28.573)">
            <path id="Path_51" data-name="Path 51" d="M1336.09,803.772a6.667,6.667,0,0,0,6.7-2.164,7.43,7.43,0,0,0-1.077-10.453,8.766,8.766,0,0,0-2.166-1.3l-1.879-.65Z" transform="translate(-1334.629 -787.747)" fill="#fff"/>
            <g id="Group_44" data-name="Group 44">
              <path id="Path_52" data-name="Path 52" d="M1336.667,804.361a9.452,9.452,0,0,1-1.911-.2,1.461,1.461,0,1,1,.589-2.861,5.191,5.191,0,0,0,5.268-1.654,5.969,5.969,0,0,0-.865-8.4,7.29,7.29,0,0,0-1.766-1.066l-1.835-.635a1.461,1.461,0,0,1,.956-2.761l1.878.65c.028.009.055.02.082.031a10.211,10.211,0,0,1,2.528,1.515,8.89,8.89,0,0,1,1.288,12.508A7.874,7.874,0,0,1,1336.667,804.361Z" transform="translate(-1333.589 -786.707)" fill="#090928"/>
            </g>
          </g>
          <path id="Path_53" data-name="Path 53" d="M1291.4,794.52c-2.339-.93-5.55-3.582-5.817-6.209a7.43,7.43,0,0,1,6.641-8.144,8.786,8.786,0,0,1,2.524.106l1.927.489Z" transform="translate(-1209.39 -755.396)" fill="#fff"/>
          <g id="Group_47" data-name="Group 47" transform="translate(74.465 23.424)">
            <path id="Path_54" data-name="Path 54" d="M1289.6,794.07a6.665,6.665,0,0,1-4.407-5.486,7.43,7.43,0,0,1,6.641-8.144,8.782,8.782,0,0,1,2.524.105l1.927.488Z" transform="translate(-1283.692 -778.933)" fill="#fff"/>
            <g id="Group_46" data-name="Group 46">
              <path id="Path_55" data-name="Path 55" d="M1288.559,794.492a1.449,1.449,0,0,1-.54-.1,8.124,8.124,0,0,1-5.321-6.7,8.9,8.9,0,0,1,7.947-9.745,10.228,10.228,0,0,1,2.944.123l.086.019,1.927.488a1.461,1.461,0,0,1-.718,2.832l-1.883-.477a7.313,7.313,0,0,0-2.062-.079,5.97,5.97,0,0,0-5.335,6.543,5.189,5.189,0,0,0,3.494,4.277,1.461,1.461,0,0,1-.54,2.818Z" transform="translate(-1282.652 -777.894)" fill="#090928"/>
            </g>
          </g>
          <path id="Path_56" data-name="Path 56" d="M1326.625,769.712c-.13,7.278-8.781,11.441-15.086,12-8.469.747-20.995-4.537-20.326-14.705.827-12.581,14.374-7.673,20.663-2.367C1320.524,771.934,1326.625,769.711,1326.625,769.712Z" transform="translate(-1211.735 -746.648)" fill="#090928"/>
          <g id="Group_48" data-name="Group 48" transform="translate(95.815)">
            <path id="Path_57" data-name="Path 57" d="M1347.9,766.476h0a5.61,5.61,0,0,1-7.86,2.974l-9.853-5.191,2.9-6.342,10.11.986A5.61,5.61,0,0,1,1347.9,766.476Z" transform="translate(-1323.763 -746.165)" fill="#12c2e9"/>
            <path id="Path_58" data-name="Path 58" d="M1322.588,738.265h0a5.61,5.61,0,0,0-2.625,7.984l5.619,9.615,6.208-3.179-1.429-10.057A5.61,5.61,0,0,0,1322.588,738.265Z" transform="translate(-1319.194 -737.804)" fill="#12c2e9"/>
          </g>
          <path id="Path_59" data-name="Path 59" d="M1335.824,1093.769l-.1,40.7,1.882-1.333a34.024,34.024,0,0,0,14.351-26.837h0a4.351,4.351,0,0,1,5.524.41l7.414,7.105,6.99-4.949-18.484-26.475Z" transform="translate(-1230.248 -881.055)" fill="#ff7600"/>
          <g id="Group_49" data-name="Group 49" transform="translate(62.626 139.176)">
            <path id="Path_60" data-name="Path 60" d="M1323.461,1039.652c-4.071,7.462-7.617,12.343-18.885,12.258l-39.51-49.33a17.326,17.326,0,0,1,29.3-18.493Z" transform="translate(-1262.39 -976.004)" fill="#090928"/>
          </g>
          <g id="Group_53" data-name="Group 53" transform="translate(61.656 137.57)">
            <g id="Group_50" data-name="Group 50" transform="translate(7.122)">
              <path id="Path_61" data-name="Path 61" d="M1273.9,979.163a.981.981,0,0,1-.577-1.775c.33-.239.668-.468,1-.68a1.12,1.12,0,0,1,.108-.058l7.075-3.3a.981.981,0,1,1,.83,1.778l-7.017,3.276q-.436.277-.846.576A.977.977,0,0,1,1273.9,979.163Z" transform="translate(-1272.919 -973.255)" fill="#fff"/>
            </g>
            <g id="Group_51" data-name="Group 51" transform="translate(0 3.946)">
              <path id="Path_62" data-name="Path 62" d="M1285.523,1031.626a.979.979,0,0,1-.767-.367l-21.145-26.4a.966.966,0,0,1-.064-.089,18.334,18.334,0,0,1,4.709-24.573.981.981,0,0,1,1.152,1.588,16.369,16.369,0,0,0-4.232,21.892l21.11,26.358a.981.981,0,0,1-.765,1.594Z" transform="translate(-1260.73 -980.008)" fill="#fff"/>
            </g>
          </g>
          <g id="Group_54" data-name="Group 54" transform="translate(68.119 142.794)">
            <path id="Path_64" data-name="Path 64" d="M1272.261,983.169a.487.487,0,0,0,0-.973.487.487,0,0,0,0,.973Z" transform="translate(-1271.791 -982.196)" fill="#3b2ff6"/>
          </g>
          <g id="Group_55" data-name="Group 55" transform="translate(29.027 55.897)">
            <path id="Path_65" data-name="Path 65" d="M1225.426,851.279a1.459,1.459,0,0,1-1.215-.648c-2.257-3.372-9.122-13.631-13.613-14.215a2.2,2.2,0,0,0-1.86.575,2.757,2.757,0,0,0-.246,3.886l4.92,5.585a1.461,1.461,0,0,1-2.192,1.931l-4.92-5.585a5.681,5.681,0,0,1,.507-8.009,5.143,5.143,0,0,1,4.169-1.28c5.115.665,10.788,8.2,15.664,15.487a1.461,1.461,0,0,1-1.213,2.273Z" transform="translate(-1204.885 -833.471)" fill="#090928"/>
          </g>
          <g id="Group_56" data-name="Group 56" transform="translate(0 116.204)">
            <path id="Path_66" data-name="Path 66" d="M1181.447,968.66a1.476,1.476,0,0,1-.208-.015c-2.927-.419-5.688-.915-8.125-1.352-1.668-.3-3.108-.557-4.353-.749-1.72-.263-6.954-1.066-6.823-5.956a5.631,5.631,0,0,1,1.13-3.176l-2.432-.1a31.815,31.815,0,0,0-1.3-14.653,5.143,5.143,0,0,1,1.964-3.894c4.024-3.229,13.389-2.1,22.02-.572a1.461,1.461,0,0,1-.51,2.877c-3.994-.709-16.149-2.862-19.682-.026a2.21,2.21,0,0,0-.874,1.741,2.751,2.751,0,0,0,2.631,2.868l7.437.32a1.461,1.461,0,0,1,1.276,2.044c-.061.139-.12.279-.176.421a1.479,1.479,0,0,1-1.424.93l-11-.473a2.752,2.752,0,1,0-.236,5.5l11.069.476a1.462,1.462,0,0,1,1.332,1.026l.086.272a1.461,1.461,0,0,1-.218,1.343,1.487,1.487,0,0,1-1.23.581c-2.965-.128-3.787-.163-4.042-.176v0a2.692,2.692,0,0,0-1.947.793,2.85,2.85,0,0,0-.955,1.958c-.031,1.2.473,2.4,4.346,2.992,1.282.2,2.809.47,4.426.759,2.413.434,5.147.924,8.023,1.336a1.46,1.46,0,0,1-.206,2.906Z" transform="translate(-1155.206 -936.687)" fill="#090928"/>
          </g>
          <g id="Group_61" data-name="Group 61" transform="translate(33.593 86.419)">
            <path id="Path_71" data-name="Path 71" d="M1294.268,900.978c-15.114,22.447-37.037,37.768-65.353,45.629q-.359.1-.719.178a12.79,12.79,0,0,1-6.124-24.826c21.825-6.06,38.274-17.152,49.941-33.75Z" transform="translate(-1212.701 -886.749)" fill="#ff7600"/>
            <g id="Group_59" data-name="Group 59" transform="translate(7.91 0)">
              <path id="Path_72" data-name="Path 72" d="M1227.7,922.382a1.461,1.461,0,0,1-.39-2.869c21.581-5.992,37.654-16.846,49.136-33.183a1.461,1.461,0,0,1,2.39,1.68c-11.887,16.913-28.486,28.138-50.745,34.318A1.5,1.5,0,0,1,1227.7,922.382Z" transform="translate(-1226.239 -885.71)" fill="#090928"/>
            </g>
            <g id="Group_60" data-name="Group 60" transform="translate(55.394 12.769)">
              <path id="Path_73" data-name="Path 73" d="M1308.969,936.586a1.461,1.461,0,0,1-.878-2.629,106.332,106.332,0,0,0,24.378-25.749,1.461,1.461,0,1,1,2.423,1.632,109.258,109.258,0,0,1-25.047,26.453A1.453,1.453,0,0,1,1308.969,936.586Z" transform="translate(-1307.507 -907.563)" fill="#090928"/>
            </g>
          </g>
        </g>
        <g id="Group_68" data-name="Group 68" transform="translate(394.174 75.642)">
          <g id="Group_63" data-name="Group 63" transform="translate(6.75)">
            <path id="Path_74" data-name="Path 74" d="M1083.474,398.9a13.045,13.045,0,0,1-12.876-15.159c5.465-33.111,23.2-59.66,52.7-78.909a13.035,13.035,0,1,1,14.245,21.833c-23.453,15.3-36.937,35.36-41.222,61.322A13.039,13.039,0,0,1,1083.474,398.9Z" transform="translate(-1070.422 -302.714)" fill="#090928"/>
          </g>
          <g id="Group_64" data-name="Group 64" transform="translate(6.75)">
            <path id="Path_75" data-name="Path 75" d="M1083.474,398.9a13.045,13.045,0,0,1-12.876-15.159c5.465-33.111,23.2-59.66,52.7-78.909a13.035,13.035,0,1,1,14.245,21.833c-23.453,15.3-36.937,35.36-41.222,61.322A13.039,13.039,0,0,1,1083.474,398.9Z" transform="translate(-1070.422 -302.714)" fill="#c471ed"/>
          </g>
          <g id="Group_65" data-name="Group 65" transform="translate(0 100.062)">
            <path id="Path_76" data-name="Path 76" d="M1074.048,503.85c-.092,0-.186,0-.279-.007a5.758,5.758,0,0,0-8.889-4.245,5.21,5.21,0,0,1-3.938-2.008c-3.266-4.106-2.075-13.638-.479-22.42a1.461,1.461,0,0,1,2.875.522c-.74,4.071-2.99,16.457-.109,20.08a2.281,2.281,0,0,0,1.79.909,2.833,2.833,0,0,0,2.964-2.7l.359-7.577a1.46,1.46,0,0,1,2.047-1.268c.141.062.284.124.429.181a1.46,1.46,0,0,1,.924,1.429l-.531,11.212a2.835,2.835,0,0,0,2.7,2.965,2.85,2.85,0,0,0,2.04-.734,2.817,2.817,0,0,0,.924-1.962l.534-11.278a1.461,1.461,0,0,1,1.031-1.327l.278-.086a1.46,1.46,0,0,1,1.918,1.455c-.2,4.128-.2,4.128-.2,4.146a2.824,2.824,0,0,0,.81,1.981,2.93,2.93,0,0,0,2.011.99c1.237.051,2.47-.473,3.1-4.439.206-1.3.491-2.857.794-4.5.452-2.458.965-5.245,1.4-8.176a1.461,1.461,0,1,1,2.89.427c-.441,2.982-.958,5.795-1.415,8.278-.312,1.7-.581,3.161-.782,4.428-.271,1.72-1.09,6.906-5.862,6.906l-.209,0a5.712,5.712,0,0,1-3.257-1.193l-.121,2.531a5.754,5.754,0,0,1-5.741,5.482Z" transform="translate(-1058.87 -473.97)" fill="#090928"/>
          </g>
          <g id="Group_67" data-name="Group 67" transform="translate(32.751 32.381)">
            <g id="Group_66" data-name="Group 66">
              <path id="Path_77" data-name="Path 77" d="M1115.916,406.7a1.018,1.018,0,0,1-.177-.016.992.992,0,0,1-.8-1.152,72.229,72.229,0,0,1,7.894-21.659,96.019,96.019,0,0,1,20.277-25.489.992.992,0,1,1,1.325,1.475,94.062,94.062,0,0,0-19.862,24.963,70.28,70.28,0,0,0-7.683,21.062A.992.992,0,0,1,1115.916,406.7Z" transform="translate(-1114.923 -358.134)"/>
            </g>
          </g>
        </g>
      </g>
      <g id="Group_158" data-name="Group 158" transform="matrix(0.995, 0.105, -0.105, 0.995, 255.701, 249.582)">
        <ellipse id="Ellipse_16" data-name="Ellipse 16" cx="3.746" cy="3.733" rx="3.746" ry="3.733" transform="translate(29.969 84.615)" fill="#512368"/>
        <path id="Path_184" data-name="Path 184" d="M37.988.021C37.821.011,37.645,0,37.478,0H14.944c-.162,0-.329.011-.492.021C10.573.337,7.5,4.2,7.494,8.935V62.918c0,2.455,1.656,4.442,3.7,4.442h.07c2.056,0,3.721-2,3.721-4.463V13.45c0-2.371,1.537-4.31,3.479-4.468H33.982c1.942.158,3.479,2.1,3.479,4.468V31.463c0,2.471-1.674,4.478-3.734,4.478H29.971v-.005H26.185a3.9,3.9,0,0,0-3.593,3.378c-.031.142-.057.29-.075.437-.009.047-.013.1-.018.148-.009.084-.013.174-.018.258s0,.148,0,.227v.09c0,.079,0,.153,0,.232l.013.221c.009.105.022.205.035.306.009.042.013.079.022.121.026.147.057.29.092.427.018.069.035.137.057.2.04.137.088.274.141.406a3.866,3.866,0,0,0,2.622,2.455c.123.026.246.053.373.068s.255.021.382.021h7.511c1.994,0,3.628,1.886,3.729,4.246V67.4c0,.079,0,.153,0,.232-.1,2.365-1.735,4.252-3.729,4.252H3.76C1.687,71.882,0,73.9,0,76.392a4.953,4.953,0,0,0,1.094,3.166,3.446,3.446,0,0,0,2.64,1.312H37.478c4.13,0,7.476-4.014,7.476-8.967V8.956C44.954,4.215,41.88.337,37.988.021Z" fill="url(#linear-gradient)"/>
      </g>
      <text id="شراء" transform="translate(379.834 435.285)" font-size="28" font-family="Somar-Regular, Somar"><tspan x="0" y="0">شراء</tspan></text>
      <text id="متجرك_الالكتروني_" data-name="متجرك الالكتروني " transform="matrix(1, 0.017, -0.017, 1, 138.771, 202.359)" fill="#fff" font-size="24" font-family="Somar-Regular, Somar"><tspan x="0" y="0">متجرك الالكتروني</tspan><tspan y="0"> </tspan></text>
    </g>
    <g id="Group_201" data-name="Group 201" transform="translate(-22365 -5666.13)" opacity="0">
      <g id="Group_200" data-name="Group 200" transform="translate(0 0)">
        <path id="Path_193" data-name="Path 193" d="M610.19,328.547H771.08a37.059,37.059,0,0,0-37.064-37.064,36.647,36.647,0,0,0-6.147.508,50.659,50.659,0,0,0-94.131,9.16A27.717,27.717,0,0,0,610.19,328.547Z" transform="translate(-517.312 -263.978)" fill="#12c2e9"/>
        <g id="Group_184" data-name="Group 184" transform="translate(192.286 7.597)">
          <path id="Path_194" data-name="Path 194" d="M945.665,823.7l196.208-37.271a41.288,41.288,0,0,0,32.857-48.267L1095.7,322.147a41.288,41.288,0,0,0-48.267-32.857L851.23,326.561a41.287,41.287,0,0,0-32.857,48.267L897.4,790.843A41.287,41.287,0,0,0,945.665,823.7Z" transform="translate(-817.64 -284.376)" fill="#8eb8ff"/>
          <g id="Group_171" data-name="Group 171" transform="translate(24.563)">
            <path id="Path_195" data-name="Path 195" d="M1146.966,313.42a41.285,41.285,0,0,0-48.265-32.856L902.5,317.835A41.293,41.293,0,0,0,869.631,366.1l79.027,416.023a41.293,41.293,0,0,0,48.275,32.854l196.2-37.271a41.285,41.285,0,0,0,32.855-48.265m-14.147,2.687a26.921,26.921,0,0,1-21.4,31.431l-196.2,37.271a26.915,26.915,0,0,1-31.431-21.4L883.788,363.413a26.906,26.906,0,0,1,21.4-31.421l196.2-37.271a26.913,26.913,0,0,1,31.429,21.386" transform="translate(-868.898 -279.832)" fill="#fff"/>
            <path id="Path_196" data-name="Path 196" d="M1227.512,747.8a26.921,26.921,0,0,1-21.4,31.431l-196.2,37.271a26.915,26.915,0,0,1-31.431-21.4L899.453,379.079a26.906,26.906,0,0,1,21.4-31.421l196.2-37.271a26.913,26.913,0,0,1,31.429,21.386" transform="translate(-884.564 -295.498)" fill="#11698e" opacity="0.2"/>
            <path id="Path_197" data-name="Path 197" d="M1214.682,669.9,1192.7,554.171M929.644,682.031l19.014,100.094a41.293,41.293,0,0,0,48.275,32.854l171.544-32.586m5-325.561L1146.966,313.42a41.285,41.285,0,0,0-48.265-32.856L902.5,317.835A41.293,41.293,0,0,0,869.631,366.1l42.159,221.94" transform="translate(-868.898 -279.832)" fill="none" stroke="#090928" stroke-linecap="round" stroke-linejoin="round" stroke-width="8.408"/>
          </g>
          <g id="Group_183" data-name="Group 183" transform="translate(100.949 79.92)">
            <g id="Group_179" data-name="Group 179">
              <path id="Path_198" data-name="Path 198" d="M1202.815,514.909a81.708,81.708,0,0,1-13.839,66.8,83.825,83.825,0,0,1-12.994,14.066,85.906,85.906,0,0,1-24.3,14.728c-2.018.809-4.089,1.552-6.2,2.215-.594.191-1.194.372-1.794.55q-3.2.936-6.521,1.646a5.434,5.434,0,0,1-.612.127l-.02,0c-.327.08-.665.146-.991.21q-3.83.749-7.642,1.161-1.258.132-2.52.23a90.845,90.845,0,0,1-34.491-3.828l-.023-.008q-3.738-1.154-7.348-2.631c-26.059-10.605-46.643-32.938-53.137-61.528-10.47-46.094,19.641-91.015,67.262-100.334S1192.345,468.815,1202.815,514.909Z" transform="translate(-1028.303 -446.612)" fill="#fff"/>
              <g id="Group_178" data-name="Group 178" transform="translate(55.945 42.9)">
                <g id="Group_172" data-name="Group 172">
                  <path id="Path_199" data-name="Path 199" d="M1146.609,553.484a8.581,8.581,0,0,1-.583-.98c-2.648-5.242.449-11.1,5.089-14.033a16.87,16.87,0,0,1,16.973-.086,11.214,11.214,0,0,1,4.56,6.446c.41,1.3.615,2.759,1.6,3.74,1.586,1.572,4.069,1.435,6.121,1.222a21.579,21.579,0,0,1,16.2,5.278c3.7,3.326,6.141,8.618,4.488,13.387a6.2,6.2,0,0,1-2.751,3.543c-2.538,1.358-5.892.373-8.3-.886-3.522-1.843-4.406-5.207-6.809-7.953s-6.212-3.541-9.714-2.913a15.2,15.2,0,0,0-8.142,4.348,14.722,14.722,0,0,0-1.2,1.4c-.229.527-.475,1.106-.74,1.715s-.549,1.247-.852,1.892c-.339.5-.652,1.049-.961,1.616-1.191,2.926-2.778,5.065-5.712,6.263-3.135,1.279-6.241-2.043-6.538-4.865-.366-3.479,2.7-6.194,3.318-9.456a5.75,5.75,0,0,0,.046-1.967,7.956,7.956,0,0,0-1.073-2.066,15.489,15.489,0,0,0-1.538-1.833A31.372,31.372,0,0,1,1146.609,553.484Z" transform="translate(-1145.051 -536.137)" fill="#090928"/>
                </g>
                <g id="Group_173" data-name="Group 173" transform="translate(11.579 76.356)">
                  <path id="Path_200" data-name="Path 200" d="M1237.9,713.051a69.287,69.287,0,0,1-19.614,11.887c-1.63.65-3.289,1.247-4.987,1.785-.48.152-.964.3-1.448.444q-2.58.755-5.264,1.329a4.47,4.47,0,0,1-.494.1l-.016,0c-.264.064-.537.118-.8.169q-3.091.605-6.168.937c-.687.074-1.369.136-2.053.19a73.336,73.336,0,0,1-27.842-3.09.012.012,0,0,1,0-.007,50.623,50.623,0,0,1,5.591-14.371,34.493,34.493,0,0,1,7.055-8.509l0,0a34.645,34.645,0,0,1,16.4-7.7,35.876,35.876,0,0,1,18.538,1.073,38.761,38.761,0,0,1,10.477,5.444A53.9,53.9,0,0,1,1237.9,713.051Z" transform="translate(-1169.215 -695.48)" fill="#090928"/>
                </g>
                <g id="Group_174" data-name="Group 174" transform="translate(23.774 68.129)">
                  <path id="Path_201" data-name="Path 201" d="M1194.664,684.4l31.122-6.09,7.132,16.769-37.484,7.335Z" transform="translate(-1194.664 -678.311)" fill="#090928"/>
                </g>
                <g id="Group_176" data-name="Group 176" transform="translate(7.55 22.455)">
                  <g id="Group_175" data-name="Group 175">
                    <path id="Path_202" data-name="Path 202" d="M1203.2,588.926a11.006,11.006,0,0,0-1.385-.418,25.383,25.383,0,0,1-7.24-2.988A17.843,17.843,0,0,0,1182,583.329c-4.139.81-7.283,3.264-9.985,5.972-2.323,2.327-4.233,4.464-6.882,6.1a10.214,10.214,0,0,0-1.752,1.364,8.321,8.321,0,0,0-.249,11.794,8.937,8.937,0,0,0,9.97,2.184,17.841,17.841,0,0,0,16.3,5.164,16.638,16.638,0,0,0,12.6-10.645,8.322,8.322,0,0,0,6.663-5.712A8.623,8.623,0,0,0,1203.2,588.926Z" transform="translate(-1160.808 -582.996)" fill="#ff7600"/>
                  </g>
                </g>
                <g id="Group_177" data-name="Group 177" transform="translate(16.987 41.971)">
                  <path id="Path_203" data-name="Path 203" d="M1210.481,624.264l-.211.138a8.3,8.3,0,0,1-8.44.255,7.765,7.765,0,0,0-5.179-.788,7.342,7.342,0,0,0-4.511,2.809,7.89,7.89,0,0,1-7.828,2.867l-.125-.024a2.994,2.994,0,0,0-3.15,4.605,19.43,19.43,0,0,0,19.736,8.033h0a18.032,18.032,0,0,0,14.6-14.972A3.155,3.155,0,0,0,1210.481,624.264Z" transform="translate(-1180.501 -623.724)" fill="#090928"/>
                </g>
              </g>
            </g>
            <g id="Group_180" data-name="Group 180" transform="translate(32.397 274.405)">
              <path id="Path_204" data-name="Path 204" d="M1467.58,1059.96l-16.249,2.51-10.657-40.674,15.936-2.462a7.928,7.928,0,0,1,8.642,5.657l7.344,27.2A6.068,6.068,0,0,1,1467.58,1059.96Z" transform="translate(-1275.466 -1019.251)" fill="#fff"/>
              <path id="Path_205" data-name="Path 205" d="M1139.744,1107.8l-27.61,4.265a7.918,7.918,0,0,1-8.637-5.657l-7.349-27.2a6.069,6.069,0,0,1,5.017-7.767l27.922-4.313Z" transform="translate(-1095.911 -1044.186)" fill="#fff"/>
              <path id="Path_206" data-name="Path 206" d="M1307.833,1065.237l-132.033,20.4-10.657-40.674,132.033-20.4Z" transform="translate(-1131.968 -1022.017)" fill="#fff"/>
            </g>
            <g id="Group_181" data-name="Group 181" transform="translate(13.059 197.662)">
              <path id="Path_207" data-name="Path 207" d="M1427.669,899.809l-15.841,2.447-10.657-40.673,15.528-2.4a7.922,7.922,0,0,1,8.642,5.657l7.344,27.2A6.068,6.068,0,0,1,1427.669,899.809Z" transform="translate(-1235.555 -859.1)" fill="#fff"/>
              <path id="Path_208" data-name="Path 208" d="M1099.8,947.519l-28.017,4.328a7.918,7.918,0,0,1-8.637-5.658l-7.349-27.2a6.066,6.066,0,0,1,5.017-7.767l28.329-4.377Z" transform="translate(-1055.556 -883.966)" fill="#fff"/>
              <path id="Path_209" data-name="Path 209" d="M1268.329,904.954l-132.033,20.4-10.657-40.674,132.033-20.4Z" transform="translate(-1092.056 -861.798)" fill="#fff"/>
            </g>
            <g id="Group_182" data-name="Group 182" transform="translate(61.553 291.695)">
              <path id="Path_210" data-name="Path 210" d="M1172.056,1100.1a6.679,6.679,0,0,1-5.524,8.553,8.723,8.723,0,0,1-9.516-6.229,6.679,6.679,0,0,1,5.524-8.553A8.723,8.723,0,0,1,1172.056,1100.1Z" transform="translate(-1156.754 -1075.358)" fill="#8eb8ff"/>
              <path id="Path_211" data-name="Path 211" d="M1234.159,1090.511a6.679,6.679,0,0,1-5.524,8.553,8.723,8.723,0,0,1-9.516-6.23,6.679,6.679,0,0,1,5.524-8.553A8.723,8.723,0,0,1,1234.159,1090.511Z" transform="translate(-1189.097 -1070.361)" fill="#8eb8ff"/>
              <path id="Path_212" data-name="Path 212" d="M1297.2,1080.773a6.679,6.679,0,0,1-5.524,8.553,8.722,8.722,0,0,1-9.516-6.229,6.679,6.679,0,0,1,5.524-8.553A8.722,8.722,0,0,1,1297.2,1080.773Z" transform="translate(-1221.929 -1065.289)" fill="#8eb8ff"/>
              <ellipse id="Ellipse_17" data-name="Ellipse 17" cx="7.199" cy="8.043" rx="7.199" ry="8.043" transform="translate(85.641 13.579) rotate(-55.369)" fill="#2872ff"/>
              <path id="Path_213" data-name="Path 213" d="M1420.963,1061.653a6.679,6.679,0,0,1-5.524,8.553,8.723,8.723,0,0,1-9.516-6.229,6.679,6.679,0,0,1,5.524-8.553A8.723,8.723,0,0,1,1420.963,1061.653Z" transform="translate(-1286.386 -1055.331)" fill="#2872ff"/>
            </g>
          </g>
        </g>
        <path id="Path_214" data-name="Path 214" d="M545.843,701.694H416.369A29.822,29.822,0,0,1,446.2,671.868a29.484,29.484,0,0,1,4.947.409,40.767,40.767,0,0,1,75.75,7.371A22.306,22.306,0,0,1,545.843,701.694Z" transform="translate(-416.369 -464.882)" fill="#12c2e9"/>
        <path id="Path_215" data-name="Path 215" d="M1573.679,411.221h231.458a36.594,36.594,0,0,0-33.076-20.938c-.473,0-.934.012-1.395.037a42.92,42.92,0,0,0-35.2-18.312,41.324,41.324,0,0,0-5.726.386,61.018,61.018,0,0,0-112.5-.373c-.249-.012-.5-.012-.747-.012A42.975,42.975,0,0,0,1573.679,411.221Z" transform="translate(-1019.103 -300.881)" fill="#12c2e9"/>
        <g id="Group_197" data-name="Group 197" transform="translate(539.538 134.468)">
          <g id="Group_195" data-name="Group 195" transform="translate(23.414)">
            <g id="Group_185" data-name="Group 185" transform="translate(3.706 98.948)">
              <path id="Path_216" data-name="Path 216" d="M1670.938,847.63a60.838,60.838,0,0,1-39.484-14.511c-15.153-12.909-25.939-32.688-32.057-58.788a18.926,18.926,0,1,1,36.853-8.638c4.235,18.065,10.88,31.056,19.751,38.613a22.871,22.871,0,0,0,21.126,4.643,23.783,23.783,0,0,0,16.467-15.33l9.58-27.566a18.926,18.926,0,0,1,35.755,12.427l-9.581,27.566a61.922,61.922,0,0,1-58.409,41.584Z" transform="translate(-1598.893 -751.081)" fill="#c471ed"/>
            </g>
            <path id="Path_217" data-name="Path 217" d="M1851.317,565.508a13.315,13.315,0,0,0,1.047-11.323c-2.677-7.624-11.471-11.333-18.981-8.8-4.568,1.539-7.606,5.714-11.748,8-2.983,1.642-6.771,1.028-10.023,1.129-7.8.244-16.729,1.7-22.261,7.734-4.644,5.063-7.965,15.166-1.118,19.9,3.718,2.571,8.994,1.1,12.315-1.448,3.53-2.712,4.593-7.672,8.607-9.891a11.957,11.957,0,0,1,5.952-1.3,18.756,18.756,0,0,1,16.607,11.14c1.9,4.464,2.354,10.119,6.456,12.71,4.416,2.79,10.626-.124,11.715-5.113.941-4.317-1.26-8.883-2.145-13.034a23.336,23.336,0,0,1-.459-3c-.207-2.6,1.923-3.9,3.336-5.7A11.413,11.413,0,0,0,1851.317,565.508Z" transform="translate(-1691.763 -544.592)" fill="#090928"/>
            <path id="Path_218" data-name="Path 218" d="M1591.159,1357.038h23.369c7.18,0,14.191-3.109,20.19-6.827,4.81-2.981,12.037-8.979,17.921-5.368,3.527,2.165,5.942,6.211,8.055,9.65a5.343,5.343,0,0,0,4.552,2.545h1.211a7.508,7.508,0,0,0,7.5-7.943l-1.927-33.184-47.169-6.229C1606.745,1320.894,1596.628,1338.229,1591.159,1357.038Z" transform="translate(-1591.159 -943.055)" fill="#c471ed"/>
            <path id="Path_219" data-name="Path 219" d="M1987.512,1357.038h-23.369c-7.18,0-14.191-3.109-20.19-6.827-4.81-2.981-12.037-8.979-17.921-5.368-3.527,2.165-5.942,6.211-8.056,9.65a5.342,5.342,0,0,1-4.551,2.545h-1.211a7.509,7.509,0,0,1-7.5-7.943l1.926-33.184,47.169-6.229C1971.925,1320.894,1982.043,1338.229,1987.512,1357.038Z" transform="translate(-1754.455 -943.055)" fill="#c471ed"/>
            <g id="Group_186" data-name="Group 186" transform="translate(119.876 175.837)">
              <path id="Path_220" data-name="Path 220" d="M1921.207,1099.812l-31.632-168.43a24.334,24.334,0,0,0-47.831,8.982l31.632,168.43C1875.572,1120.485,1923.688,1113.021,1921.207,1099.812Z" transform="translate(-1841.322 -911.535)" fill="#090928"/>
            </g>
            <g id="Group_187" data-name="Group 187" transform="translate(33.307 184.692)">
              <path id="Path_221" data-name="Path 221" d="M1707.848,1119.712,1750.6,960.672a24.333,24.333,0,1,0-47-12.634l-42.754,159.04C1657.36,1120.056,1704.927,1130.575,1707.848,1119.712Z" transform="translate(-1660.666 -930.015)" fill="#090928"/>
            </g>
            <path id="Path_222" data-name="Path 222" d="M1741.819,852.1q56.554,16.483,113.332,0c2.153-.622.552-27.753.336-31.041a147.852,147.852,0,0,0-5-29.263c-5.508-20.129-21.958-34.608-34.524-47.041s-9.8-2.69-15.74-2.69c-23.973,0-38.679,17.063-46.443,38.117a210.515,210.515,0,0,0-9.007,32.71C1743.984,816.964,1738.676,851.179,1741.819,852.1Z" transform="translate(-1669.11 -647.457)" fill="#c471ed"/>
            <path id="Path_223" data-name="Path 223" d="M1858.553,725.921h-39.345l-4.022,22.711h47.388Z" transform="translate(-1707.834 -639.029)" fill="#c471ed"/>
            <g id="Group_188" data-name="Group 188" transform="translate(36.222 180.865)">
              <path id="Path_224" data-name="Path 224" d="M1700.993,967.1c-12.744-1.309-26.346-3.454-30.6-9.449a6.827,6.827,0,0,1-1.1-5.761,7.666,7.666,0,0,1,3.535-4.808l-.175-.041a7.687,7.687,0,0,1,3.574-14.952l4.944,1.182a7.824,7.824,0,0,1-.91-5.836c1.643-6.4,8.948-5.484,11.349-5.181,1.857.234,4.015.451,6.513.7,3.64.366,7.764.78,12.088,1.368l-.391,2.877c-4.273-.582-8.371-.993-11.986-1.357-2.413-.242-4.692-.471-6.587-.71-5.025-.635-7.468.27-8.174,3.021a4.922,4.922,0,0,0,.644,3.716,4.779,4.779,0,0,0,2.892,2.244l.031.008,5.791,1.384,2.058.492-1.2,1.743c-.058.084-.113.17-.169.255l-.631.964-16.937-4.05a4.783,4.783,0,1,0-2.225,9.3l16.864,4.032.1,1.036c.021.233.051.464.082.7l.282,2.1-12.769-3.053a4.788,4.788,0,0,0-5.765,3.54,3.987,3.987,0,0,0,.648,3.407c4.063,5.729,21.836,7.554,28.527,8.24Z" transform="translate(-1666.749 -922.028)" fill="#090928"/>
            </g>
            <g id="Group_189" data-name="Group 189" transform="translate(88.422 108.302)">
              <path id="Path_225" data-name="Path 225" d="M1835.048,902.157q-1.665,0-3.359-.06c-18.872-.673-35.907-6.722-44.382-10.268a18.926,18.926,0,1,1,14.611-34.918c10.375,4.341,21.717,7.023,31.118,7.358,9.915.351,17.286-1.712,21.905-6.138,5-4.792,7.148-12.782,5.464-20.354-2.37-10.663-11.178-21.815-26.18-33.146a18.926,18.926,0,0,1,22.814-30.2c22.692,17.139,35.879,35.175,40.316,55.138,4.562,20.52-1.657,41.939-16.227,55.9C1869.694,896.417,1853.815,902.157,1835.048,902.157Z" transform="translate(-1775.681 -770.601)" fill="#c471ed"/>
            </g>
            <g id="Group_192" data-name="Group 192" transform="translate(86.975 152.308)">
              <g id="Group_190" data-name="Group 190" transform="translate(19.476 78.775)">
                <path id="Path_226" data-name="Path 226" d="M1854.652,1037.052h-.01c-1.123,0-2.27-.021-3.411-.061-14.65-.522-28.181-4.281-36.953-7.342a1.452,1.452,0,0,1,.957-2.741c8.583,3,21.813,6.674,36.1,7.182,1.11.039,2.236.062,3.318.059a82.661,82.661,0,0,0,12.16-.875,1.452,1.452,0,1,1,.429,2.871A85.553,85.553,0,0,1,1854.652,1037.052Z" transform="translate(-1813.305 -1026.825)" fill="#fff"/>
              </g>
              <g id="Group_191" data-name="Group 191">
                <path id="Path_227" data-name="Path 227" d="M1793.59,944.114a1.45,1.45,0,0,1-.478-.081c-2.72-.95-5.391-1.971-7.938-3.038a20.377,20.377,0,1,1,15.733-37.6c17.778,7.439,41.466,11.086,51.459,1.51,4.643-4.449,6.626-11.9,5.051-18.99-1.5-6.765-5.783-13.838-12.716-21.025a1.451,1.451,0,0,1,2.089-2.016c7.311,7.577,11.84,15.116,13.462,22.411,1.79,8.056-.516,16.581-5.877,21.717-10.937,10.48-35.964,6.864-54.588-.929a17.474,17.474,0,1,0-13.491,32.239c2.494,1.044,5.109,2.045,7.774,2.975a1.452,1.452,0,0,1-.478,2.823Z" transform="translate(-1772.662 -862.434)" fill="#fff"/>
              </g>
            </g>
            <g id="Group_194" data-name="Group 194" transform="translate(91.778 21.56)">
              <g id="Group_193" data-name="Group 193">
                <path id="Path_228" data-name="Path 228" d="M1793.853,598.036a13.042,13.042,0,0,1,1.748-.358,30.2,30.2,0,0,0,9.222-2.894,21.191,21.191,0,0,1,15.678-1.2c5,1.557,8.588,5.086,11.611,8.882,2.6,3.262,4.71,6.23,7.785,8.648a13.038,13.038,0,0,1,2,1.962,10.94,10.94,0,0,1-.988,15.075,10.663,10.663,0,0,1-12.486,1.522,21.271,21.271,0,0,1-34.9-10.655,10.629,10.629,0,0,1-7.558-8.13A10.947,10.947,0,0,1,1793.853,598.036Z" transform="translate(-1784.268 -591.161)" fill="#fff"/>
                <path id="Path_229" data-name="Path 229" d="M1812.536,635.02a22.671,22.671,0,0,1-21.791-16.44,12,12,0,0,1-7.782-8.97,12.329,12.329,0,0,1,8.919-14.551h0a14.556,14.556,0,0,1,1.942-.4,28.737,28.737,0,0,0,8.776-2.759,22.63,22.63,0,0,1,16.749-1.283c5.729,1.786,9.59,5.943,12.314,9.364.4.507.795,1.006,1.181,1.5a38.444,38.444,0,0,0,6.366,6.914,14.487,14.487,0,0,1,2.225,2.181,12.46,12.46,0,0,1-1.124,17.064,12.032,12.032,0,0,1-13.253,2.185A22.878,22.878,0,0,1,1812.536,635.02Zm-19.88-37.163a9.456,9.456,0,0,0-6.853,11.153,9.149,9.149,0,0,0,6.535,7.033l.808.23.2.815a19.691,19.691,0,0,0,13.337,14.141,19.922,19.922,0,0,0,19.182-4.213l.766-.691.9.5a9.192,9.192,0,0,0,10.8-1.316,9.442,9.442,0,0,0,.852-13.086,11.622,11.622,0,0,0-1.779-1.744,41.2,41.2,0,0,1-6.855-7.4c-.381-.486-.768-.98-1.167-1.481-2.465-3.1-5.933-6.85-10.907-8.4a19.735,19.735,0,0,0-14.608,1.119,31.615,31.615,0,0,1-9.668,3.029,11.694,11.694,0,0,0-1.553.318Z" transform="translate(-1782.685 -589.583)" fill="#090928"/>
              </g>
            </g>
            <path id="Path_230" data-name="Path 230" d="M1800.189,641.334l.245.2a9.955,9.955,0,0,0,10.339,1.395,9.263,9.263,0,0,1,11.681,3.805,9.712,9.712,0,0,0,9.3,4.649l.156-.015a3.863,3.863,0,0,1,3.364,6.273,23.238,23.238,0,0,1-25.125,7.744h0a23.239,23.239,0,0,1-16.289-20.946A3.853,3.853,0,0,1,1800.189,641.334Z" transform="translate(-1696.725 -594.505)" fill="#090928"/>
            <path id="Path_231" data-name="Path 231" d="M1837.828,756.56h10.583a5.577,5.577,0,0,0,5.577-5.577h0a5.577,5.577,0,0,0-5.577-5.577h-10.583a5.577,5.577,0,0,0-5.577,5.577h0A5.577,5.577,0,0,0,1837.828,756.56Z" transform="translate(-1716.721 -649.177)" fill="#090928"/>
            <path id="Path_232" data-name="Path 232" d="M1843.29,758.727c-3.273.718-5.458,45.978,5.614,78.59l-12.313-13.573-15.082,7.166c-1.354-10.877,8.951-79.129,15.617-73.542Z" transform="translate(-1711.064 -655.238)" fill="#090928"/>
          </g>
          <g id="Group_196" data-name="Group 196" transform="translate(0 53.223)">
            <path id="Path_233" data-name="Path 233" d="M1555.513,701.938a1.45,1.45,0,0,1-1.225-.67c-6.9-10.8-13.67-22.785-11.616-29.842a6.827,6.827,0,0,1,3.827-4.446,7.633,7.633,0,0,1,5.878-.255l.083.031-.074-.159a7.687,7.687,0,0,1,13.935-6.493l2.147,4.608a7.822,7.822,0,0,1,4.006-4.34c6.037-2.695,9.857,3.6,11.112,5.671.97,1.6,2.14,3.422,3.495,5.532,1.977,3.08,4.217,6.571,6.445,10.326a1.452,1.452,0,0,1-2.5,1.481c-2.2-3.711-4.427-7.179-6.391-10.239-1.309-2.039-2.544-3.964-3.533-5.6-2.627-4.329-4.853-5.683-7.447-4.525a4.919,4.919,0,0,0-2.511,2.813,4.78,4.78,0,0,0,.04,3.661l0,.006,2.525,5.42a1.452,1.452,0,0,1-1.219,2.062c-.1.007-.21.017-.314.027l-.118.011a1.449,1.449,0,0,1-1.45-.832l-6.924-14.861a4.783,4.783,0,0,0-8.672,4.041l6.884,14.773a1.451,1.451,0,0,1-.313,1.662c-.169.162-.332.329-.493.5a1.453,1.453,0,0,1-2.362-.394l-4.652-9.984a4.783,4.783,0,0,0-6.356-2.315,3.988,3.988,0,0,0-2.266,2.626c-1.963,6.744,7.655,21.8,11.275,27.468a1.452,1.452,0,0,1-1.221,2.233Z" transform="translate(-1542.299 -655.66)" fill="#090928"/>
          </g>
        </g>
        <g id="Group_199" data-name="Group 199" transform="translate(47.446 266.711)">
          <g id="Group_198" data-name="Group 198" transform="translate(0)">
            <path id="Path_234" data-name="Path 234" d="M745.254,864.516c-5.525.422-10.8.618-15.833.618-64.835,0-88.416-32.887-94.468-43.132a2.935,2.935,0,0,0-2.525-1.442,2.89,2.89,0,0,0-1.447.383A2.927,2.927,0,0,0,629.912,822c-6.086,10.231-30.041,43.137-94.876,43.137-5.036,0-10.307-.2-15.833-.618a3.547,3.547,0,0,0-3.819,3.666c.93,25.9,10.849,170.44,116.842,223.606,106-53.167,115.917-197.71,116.847-223.606A3.552,3.552,0,0,0,745.254,864.516Zm-113.027,213.3c-85.1-47.114-100.961-161.464-103.908-200.423q3.4.1,6.718.105c53.674,0,83.016-21.425,97.19-36.879,14.184,15.454,43.525,36.879,97.195,36.879q3.314,0,6.718-.105C733.192,916.336,717.336,1030.7,632.226,1077.815Z" transform="translate(-515.382 -820.56)" fill="#ff7600"/>
            <path id="Path_235" data-name="Path 235" d="M750.2,899.193c-2.947,38.944-18.8,153.3-103.913,200.423-85.1-47.114-100.961-161.464-103.908-200.423q3.4.1,6.718.105c53.675,0,83.016-21.425,97.19-36.879C660.47,877.874,689.811,899.3,743.48,899.3Q746.794,899.3,750.2,899.193Z" transform="translate(-529.441 -842.361)" fill="none"/>
          </g>
        </g>
      </g>
      <text id="اسم_المتسخدم" data-name="اسم المتسخدم" transform="translate(336.401 336.595) rotate(-8)" font-size="34" font-family="Somar-Regular, Somar"><tspan x="0" y="0">اسم المتسخدم</tspan></text>
    </g>
    <path id="Path_115" data-name="Path 115" d="M3760.136,460.38H3535.207a35.563,35.563,0,0,1,32.143-20.348c.459,0,.907.012,1.355.036a41.708,41.708,0,0,1,34.211-17.8,40.13,40.13,0,0,1,5.565.375,59.3,59.3,0,0,1,109.325-.363c.242-.012.484-.012.726-.012A41.764,41.764,0,0,1,3760.136,460.38Z" transform="translate(-25486.793 -6045.22)" fill="#035aa7"/>
    <path id="Path_117" data-name="Path 117" d="M3391.456,635.958l-363.222,55.476a8.44,8.44,0,0,1-9.616-7.068l-50.111-328.1a8.439,8.439,0,0,1,7.068-9.616L3338.8,291.177a8.438,8.438,0,0,1,9.615,7.068l50.112,328.1A8.438,8.438,0,0,1,3391.456,635.958Z" transform="translate(-25257.777 -5963.401)" fill="#ccdae6"/>
    <g id="Group_112" data-name="Group 112" transform="translate(-22311.799 -5644.789)">
      <path id="Path_118" data-name="Path 118" d="M2963.413,643.937a2.339,2.339,0,0,1-2.316-2.035l-30.929-235.9a10.776,10.776,0,0,1,9.034-12.232L3302.424,338.3a10.776,10.776,0,0,1,12.28,9.027L3353.4,600.7a2.338,2.338,0,1,1-4.623.706l-38.7-253.376a6.1,6.1,0,0,0-6.951-5.109L2939.908,398.4a6.1,6.1,0,0,0-5.109,6.952l30.937,235.946a2.339,2.339,0,0,1-2.014,2.622A2.274,2.274,0,0,1,2963.413,643.937Z" transform="translate(-2930.045 -338.172)" fill="#090928"/>
    </g>
    <g id="Group_113" data-name="Group 113" transform="translate(-22193.865 -5299.909)">
      <path id="Path_119" data-name="Path 119" d="M3134.1,974.717a2.339,2.339,0,0,1-.314-4.655L3438.9,928.078a2.339,2.339,0,0,1,.637,4.634L3134.418,974.7A2.392,2.392,0,0,1,3134.1,974.717Z" transform="translate(-3131.761 -928.056)" fill="#090928"/>
    </g>
    <g id="Group_114" data-name="Group 114" transform="translate(-22325.311 -5648.989)">
      <circle id="Ellipse_11" data-name="Ellipse 11" cx="11.274" cy="11.274" r="11.274" transform="translate(0 17.533) rotate(-51.038)" fill="#ea676c"/>
      <circle id="Ellipse_12" data-name="Ellipse 12" cx="11.274" cy="11.274" r="11.274" transform="matrix(0.254, -0.967, 0.967, 0.254, 46.579, 24.949)" fill="#ea676c"/>
      <circle id="Ellipse_13" data-name="Ellipse 13" cx="11.274" cy="11.274" r="11.274" transform="translate(89.837 23.36) rotate(-64.783)" fill="#ea676c"/>
    </g>
    <g id="Group_115" data-name="Group 115" transform="translate(-22046.633 -5584.839)">
      <rect id="Rectangle_23" data-name="Rectangle 23" width="103.796" height="10.524" transform="translate(0 13.391) rotate(-7.413)" fill="#fff"/>
    </g>
    <g id="Group_116" data-name="Group 116" transform="translate(-22168.451 -5571.444)">
      <rect id="Rectangle_24" data-name="Rectangle 24" width="122.844" height="10.524" transform="translate(0 15.849) rotate(-7.413)" fill="#fff"/>
    </g>
    <g id="Group_117" data-name="Group 117" transform="translate(-22085.965 -5542.955)">
      <rect id="Rectangle_25" data-name="Rectangle 25" width="149.884" height="10.524" transform="translate(0 19.337) rotate(-7.412)" fill="#fff"/>
    </g>
    <g id="Group_118" data-name="Group 118" transform="translate(-22226.055 -5517.1)">
      <rect id="Rectangle_26" data-name="Rectangle 26" width="90.796" height="10.524" transform="translate(0 11.714) rotate(-7.412)" fill="#fff"/>
    </g>
    <g id="Group_119" data-name="Group 119" transform="translate(-22219.682 -5501.069)">
      <rect id="Rectangle_27" data-name="Rectangle 27" width="291.154" height="10.524" transform="translate(0 37.562) rotate(-7.412)" fill="#fff"/>
    </g>
    <g id="Group_120" data-name="Group 120" transform="translate(-22154.701 -5459.188)">
      <rect id="Rectangle_28" data-name="Rectangle 28" width="232.05" height="10.524" transform="translate(0 29.938) rotate(-7.413)" fill="#fff"/>
    </g>
    <g id="Group_121" data-name="Group 121" transform="translate(-22150.148 -5417.305)">
      <rect id="Rectangle_29" data-name="Rectangle 29" width="233.887" height="10.524" transform="translate(0 30.175) rotate(-7.413)" fill="#fff"/>
    </g>
    <g id="Group_122" data-name="Group 122" transform="translate(-21964.961 -5375.424)">
      <rect id="Rectangle_30" data-name="Rectangle 30" width="53.565" height="10.524" transform="translate(0 6.91) rotate(-7.412)" fill="#fff"/>
    </g>
    <g id="Group_123" data-name="Group 123" transform="translate(-22200.566 -5360.635)">
      <rect id="Rectangle_31" data-name="Rectangle 31" width="176.567" height="10.524" transform="translate(0 22.78) rotate(-7.413)" fill="#fff"/>
    </g>
    <g id="Group_144" data-name="Group 144" transform="translate(-21951.586 -5521.991)">
      <g id="Group_126" data-name="Group 126" transform="translate(0 100.877)">
        <g id="Group_124" data-name="Group 124">
          <path id="Path_121" data-name="Path 121" d="M3503.958,724.19a1.243,1.243,0,0,1-1.038-.558c-6.046-9.149-12-19.32-10.34-25.387a5.847,5.847,0,0,1,3.218-3.856,6.532,6.532,0,0,1,5.027-.3l.072.025-.066-.135a6.579,6.579,0,0,1,11.84-5.742l1.9,3.916a6.7,6.7,0,0,1,3.371-3.768c5.13-2.386,8.485,2.952,9.587,4.706.853,1.357,1.878,2.9,3.067,4.692,1.732,2.609,3.7,5.566,5.651,8.749a1.242,1.242,0,1,1-2.117,1.3c-1.932-3.145-3.883-6.083-5.6-8.675-1.149-1.729-2.233-3.362-3.1-4.746-2.306-3.67-4.23-4.8-6.436-3.774a4.222,4.222,0,0,0-2.111,2.442,4.1,4.1,0,0,0,.083,3.132h0l2.235,4.611a1.242,1.242,0,0,1-1.017,1.78c-.091.008-.183.018-.275.028l-.092.01a1.24,1.24,0,0,1-1.253-.693l-6.124-12.627a4.095,4.095,0,1,0-7.368,3.574l6.087,12.553a1.243,1.243,0,0,1-.244,1.426c-.143.141-.28.286-.416.432a1.243,1.243,0,0,1-2.028-.3l-4.114-8.483a4.1,4.1,0,0,0-5.472-1.9,3.415,3.415,0,0,0-1.9,2.277c-1.59,5.8,6.841,18.557,10.016,23.36a1.243,1.243,0,0,1-1.036,1.928Z" transform="translate(-3492.298 -684.53)" fill="#090928"/>
        </g>
        <g id="Group_125" data-name="Group 125" transform="translate(26.688 3.627)">
          <path id="Path_122" data-name="Path 122" d="M3607.218,768.849a68.6,68.6,0,0,1-20.915-3.472c-15.393-4.937-28.024-13.876-34.182-18.766a16.2,16.2,0,0,1,20.147-25.377c13.228,10.5,32.452,19.147,43.4,13.318,5.235-2.787,8.856-8.872,9.228-15.5a29.431,29.431,0,0,0-.641-7.681,16.2,16.2,0,1,1,31.706-6.676,61.8,61.8,0,0,1,1.286,16.17c-1.008,17.966-11.1,34.169-26.35,42.287A49.879,49.879,0,0,1,3607.218,768.849Z" transform="translate(-3545.993 -691.828)" fill="#035aa7"/>
        </g>
      </g>
      <path id="Path_123" data-name="Path 123" d="M3769.229,878.015c2.312-4.277,7.392-11.512,10.958-14.683,10.13-9.011,15.085-25.095,9.623-37.9-7.406-17.357-40.044,3.682-40.044,3.682q4.7,10.053,9.41,20.106C3762.835,857.042,3764.525,870.858,3769.229,878.015Z" transform="translate(-3621.798 -651.074)" fill="#090928"/>
      <path id="Path_124" data-name="Path 124" d="M3538.91,1145.377c.341.023-.694,5.784-.9,6.387a9.846,9.846,0,0,1-2.87,4.374c-3.932,3.472-7.625,4.041-11.832,7-6.74,4.733-10.041,16.778-7.71,24l14.488.377c10.833.234,15.712-4.28,19.615-12.326h0s7.171,2.677,7.9,6.454l1.254,6.516,10.844.287,1.354-40.877Z" transform="translate(-3503.645 -815.448)" fill="#035aa7"/>
      <path id="Path_125" data-name="Path 125" d="M3879.177,1123.908c.177-.292,4.82,3.273,5.263,3.728a9.853,9.853,0,0,1,2.568,4.558c1.278,5.087.088,8.629.781,13.723,1.109,8.16,10.294,16.624,17.783,17.872l6.987-12.7c5.182-9.516,3.413-15.923-1.943-23.085h0a7.96,7.96,0,0,1,9.361-4.053l6.364,1.877,5.235-9.5-35.691-19.972Z" transform="translate(-3686.889 -790.792)" fill="#035aa7"/>
      <g id="Group_127" data-name="Group 127" transform="translate(106.284 160.079)">
        <path id="Path_126" data-name="Path 126" d="M3787.745,974.947c9.886,8.1,28.684-18.788,18.178-29.971-5.881-6.26-50.657-65.113-49.692-88.884.139-3.395-9.16-5.675-8.9-9.063.26-3.4.868-6.771,1.339-10.153,2.014-14.456-.755-32.25-18.913-33.2-14.438-.756-21.195,12.165-22.664,24.8a134.557,134.557,0,0,0,4.127,52.891c9.092,31.136,64.642,84.24,73.544,91.662C3785.7,973.809,3786.847,974.212,3787.745,974.947Z" transform="translate(-3706.138 -803.643)"/>
      </g>
      <g id="Group_128" data-name="Group 128" transform="translate(34.045 176.434)">
        <path id="Path_127" data-name="Path 127" d="M3593.941,991.18l70.7-123.456a20.83,20.83,0,0,0-8.67-28.153c-10.167-5.379-33.631-3.771-39.011,6.4l-55.147,140.788C3554.61,997.972,3587.9,1000.248,3593.941,991.18Z" transform="translate(-3560.795 -836.55)"/>
      </g>
      <g id="Group_130" data-name="Group 130" transform="translate(95.723 191.388)">
        <g id="Group_129" data-name="Group 129">
          <path id="Path_128" data-name="Path 128" d="M3712.267,937.658a84.085,84.085,0,0,1-10.471-23.35,126.046,126.046,0,0,1-4.207-21.053s-13.072-11.046-9.593-24.119H3703.4Z" transform="translate(-3686.156 -867.893)" fill="#090928"/>
          <path id="Path_129" data-name="Path 129" d="M3711,937.643a1.242,1.242,0,0,1-1.036-.554,85.334,85.334,0,0,1-10.63-23.69,127.318,127.318,0,0,1-4.193-20.786c-2.225-2.011-12.954-12.508-9.614-25.055a1.242,1.242,0,0,1,1.2-.923h15.408a1.243,1.243,0,1,1,0,2.485h-14.424c-2.4,11.777,9.29,21.824,9.41,21.927a1.247,1.247,0,0,1,.433.808,125.11,125.11,0,0,0,4.164,20.846,82.946,82.946,0,0,0,10.314,23.01,1.243,1.243,0,0,1-1.034,1.931Z" transform="translate(-3684.891 -866.636)" fill="#fff"/>
        </g>
      </g>
      <path id="Path_130" data-name="Path 130" d="M3682.256,656.9q.463-.246.933-.479l.016-10.034,20.849-2.265s1.9,8.573,1.914,8.636c.141.612,2.561.917,3.117,1.113,8.015,2.833,14.26,10.828,15.581,19.158.943,5.938-.187,12.052-2.191,17.659a55.7,55.7,0,0,1-4.743,9.909c-.284.517,5.857,8.078,6.462,8.993a99.929,99.929,0,0,1,6.373,10.934c3.5,7.108,6.26,15.008,5.377,23.046-.172,1.554-.784,10.335-2.781,10.94-39.863,12.082-69.078,15.387-78.6.591,0,0,15.44-43.76,17.576-58.738a8.52,8.52,0,0,0-1.225-3.645A27.011,27.011,0,0,1,3682.256,656.9Z" transform="translate(-3573.912 -563.327)" fill="#090928"/>
      <g id="Group_131" data-name="Group 131" transform="translate(75.213 80.791)">
        <path id="Path_131" data-name="Path 131" d="M3676.755,656.9q.463-.246.932-.479l.017-10.034,20.848-2.265,1.914,8.636c.141.612,2.562.917,3.117,1.113,8.015,2.833,14.261,10.828,15.582,19.158.943,5.938-.187,12.052-2.192,17.659a55.569,55.569,0,0,1-4.744,9.91c-.3.5,6.489,3.765,7.178,4.206,12.39,7.934,18.14,23.215,18.057,37.451-.017,2.9,3.8,9.1.3,10.382-48.723,17.874-84.62,15.465-94.143.669,0,0,20.876-41.965,23.013-56.942a8.532,8.532,0,0,0-1.225-3.645A27.011,27.011,0,0,1,3676.755,656.9Z" transform="translate(-3643.624 -644.118)" fill="#035aa7"/>
      </g>
      <g id="Group_133" data-name="Group 133" transform="translate(92.756 27.335)">
        <circle id="Ellipse_14" data-name="Ellipse 14" cx="18.206" cy="18.206" r="18.206" transform="translate(0 21.291) rotate(-35.783)" fill="#fff"/>
        <g id="Group_132" data-name="Group 132" transform="translate(5.966 5.966)">
          <path id="Path_132" data-name="Path 132" d="M3710.372,587.468a19.449,19.449,0,1,1,19.449-19.449A19.471,19.471,0,0,1,3710.372,587.468Zm0-36.413a16.964,16.964,0,1,0,16.965,16.964A16.984,16.984,0,0,0,3710.372,551.055Z" transform="translate(-3690.924 -548.57)"/>
        </g>
      </g>
      <path id="Path_133" data-name="Path 133" d="M3721.092,531.579c5.689,7.256.514,18.26-5.237,23.846-7.048,6.843-22.375,11.868-30.326,3.83-3.522-3.56-5.305-9.671-2.086-13.96,2.634-3.509,7.336-5.214,11.517-5.9,6.687-1.105,13.884-.285,20.191-3.169a16.961,16.961,0,0,0,4.337-2.839C3719.6,533.276,3721.232,531.758,3721.092,531.579Z" transform="translate(-3587.592 -506.723)" fill="#090928"/>
      <path id="Path_134" data-name="Path 134" d="M3756.942,494.133a25.965,25.965,0,0,1,7.836.37c.494.074,7.035,1.23,6.833,1.791,0,0,1.229-3.388,1.733-4.429,1.163-2.4,3.991-3.636,6.661-3.67s6.511,1.445,9.014,2.378c-1-.373.489-5.371.881-6.06,1.866-3.272,8.376-3.327,11.528-2.493,2.825.748,5.409,3.141,5.477,6.063a7.321,7.321,0,0,1-2.559,5.224,17.007,17.007,0,0,1-5.287,3.543c-.873.363-3.949,1.646-4.534.295,1.489,3.437-.774,9.36-4.2,10.876-3.026,1.34-7.32.785-10.355-.21.4.132-1.983,6.828-2.261,7.464-3.435,7.871-11.985,12.669-20.393,9.623-9.125-3.305-14.282-15.88-9.364-24.456a13.167,13.167,0,0,1,6.654-5.7A11.631,11.631,0,0,1,3756.942,494.133Z" transform="translate(-3619.93 -481.569)" fill="#090928"/>
      <g id="Group_135" data-name="Group 135" transform="translate(124.224 39.475)">
        <path id="Path_135" data-name="Path 135" d="M3754.415,582.116a9.253,9.253,0,0,0,9.423-9.213,9.412,9.412,0,0,0-9.411-9.412c-5.2,0-9.692,3.529-9.692,8.727Z" transform="translate(-3743.492 -562.249)" fill="#fff"/>
        <g id="Group_134" data-name="Group 134">
          <path id="Path_136" data-name="Path 136" d="M3753.157,582.1a1.243,1.243,0,1,1,0-2.485,7.992,7.992,0,0,0,8.181-7.97,8.178,8.178,0,0,0-8.168-8.169c-4.817,0-8.45,3.217-8.45,7.484a1.242,1.242,0,1,1-2.484,0c0-5.591,4.8-9.969,10.934-9.969a10.666,10.666,0,0,1,10.654,10.654A10.45,10.45,0,0,1,3753.157,582.1Z" transform="translate(-3742.235 -560.991)"/>
        </g>
      </g>
      <g id="Group_137" data-name="Group 137" transform="translate(73.97 91.847)">
        <g id="Group_136" data-name="Group 136">
          <path id="Path_137" data-name="Path 137" d="M3642.366,765.734a1.243,1.243,0,0,1-1.14-1.736c.2-.476,20.589-47.622,22.027-52.413,1.266-4.218,1.1-4.527.537-5.553l-.1-.179c-.107-.2-.226-.461-.353-.748-.094-.211-.194-.437-.3-.647a28.358,28.358,0,0,1,11.872-37.47q.476-.254.962-.5a1.243,1.243,0,1,1,1.107,2.225q-.454.226-.9.464a25.856,25.856,0,0,0-10.814,34.168c.121.243.237.5.345.747.1.219.186.423.268.574l.092.171c.993,1.82,1.082,2.726-.337,7.458-1.48,4.93-21.285,50.738-22.126,52.685A1.244,1.244,0,0,1,3642.366,765.734Z" transform="translate(-3641.124 -666.362)"/>
        </g>
      </g>
      <path id="Path_138" data-name="Path 138" d="M3736.755,527.194h0s-13.21,2.876-7.951,11.231,20.031,7.315,20.031,7.315l.841-.913C3743.271,540.805,3737.67,534.7,3736.755,527.194Z" transform="translate(-3610.633 -504.517)" fill="#ea676c"/>
      <g id="Group_143" data-name="Group 143" transform="translate(112.131 89.28)">
        <g id="Group_138" data-name="Group 138">
          <path id="Path_139" data-name="Path 139" d="M3792.454,780.751a16.2,16.2,0,0,1-15.964-13.565c-5.327-32.267-22.087-57.2-51.237-76.218a16.2,16.2,0,0,1,17.7-27.137c36.671,23.925,58.708,56.923,65.5,98.078a16.215,16.215,0,0,1-16,18.842Z" transform="translate(-3717.903 -661.198)" fill="#090928"/>
        </g>
        <g id="Group_139" data-name="Group 139">
          <path id="Path_140" data-name="Path 140" d="M3792.454,780.751a16.2,16.2,0,0,1-15.964-13.565c-5.327-32.267-22.087-57.2-51.237-76.218a16.2,16.2,0,0,1,17.7-27.137c36.671,23.925,58.708,56.923,65.5,98.078a16.215,16.215,0,0,1-16,18.842Z" transform="translate(-3717.903 -661.198)" fill="#035aa7"/>
        </g>
        <g id="Group_140" data-name="Group 140" transform="translate(59.241 124.942)">
          <path id="Path_141" data-name="Path 141" d="M3858.152,948.57a6.58,6.58,0,0,1-6.565-6.268l-.206-4.347a6.7,6.7,0,0,1-4.581,2.139c-5.65.182-6.641-6.051-6.963-8.1-.25-1.58-.585-3.4-.974-5.514-.567-3.082-1.209-6.575-1.756-10.272a1.243,1.243,0,0,1,2.459-.363c.541,3.655,1.178,7.125,1.741,10.186.375,2.039.729,3.964.984,5.577.675,4.281,1.979,6.064,4.431,6a4.215,4.215,0,0,0,2.9-1.414,4.091,4.091,0,0,0,1.156-2.913h0c-.009-.175-.048-.984-.243-5.118a1.243,1.243,0,0,1,1.637-1.237c.092.031.186.059.28.087l.067.02a1.242,1.242,0,0,1,.882,1.131l.664,14.019a4.095,4.095,0,0,0,8.18-.388l-.66-13.936a1.241,1.241,0,0,1,.787-1.215c.186-.073.368-.152.55-.233a1.242,1.242,0,0,1,1.745,1.077l.446,9.417a4.1,4.1,0,0,0,4.284,3.9,3.411,3.411,0,0,0,2.646-1.345c3.742-4.706,1.009-19.752-.02-25.416a1.243,1.243,0,1,1,2.445-.444c1.96,10.79,3.436,22.483-.479,27.407a5.844,5.844,0,0,1-4.474,2.28,6.536,6.536,0,0,1-4.738-1.7l-.056-.051.006.149a6.585,6.585,0,0,1-6.26,6.883C3858.365,948.568,3858.259,948.57,3858.152,948.57Z" transform="translate(-3837.094 -912.577)"/>
        </g>
        <g id="Group_142" data-name="Group 142" transform="translate(21.356 40.237)">
          <g id="Group_141" data-name="Group 141">
            <path id="Path_142" data-name="Path 142" d="M3796.737,802.543a1.244,1.244,0,0,1-1.223-1.022,87.265,87.265,0,0,0-9.548-26.175,116.9,116.9,0,0,0-24.684-31.024,1.243,1.243,0,0,1,1.661-1.849,119.4,119.4,0,0,1,25.206,31.684,89.777,89.777,0,0,1,9.812,26.924,1.243,1.243,0,0,1-1,1.443A1.267,1.267,0,0,1,3796.737,802.543Z" transform="translate(-3760.871 -742.154)"/>
          </g>
        </g>
      </g>
    </g>
    <g id="Group_148" data-name="Group 148" transform="translate(-22311.795 -5354.031)" style="isolation: isolate">
      <g id="Group_146" data-name="Group 146" transform="translate(0)">
        <path id="Path_144" data-name="Path 144" d="M2986.271,967.382a7.694,7.694,0,0,1-7.684-7.546l-.229-11.846q-.737-.28-1.468-.585l-8.46,8.748a7.649,7.649,0,0,1-5.4,2.344h-.133a7.643,7.643,0,0,1-5.346-2.164l-15.364-14.859A7.7,7.7,0,0,1,2942,930.6l8.483-8.77-.036-.079-11.87.5a7.695,7.695,0,0,1-8.02-7.508l-.5-21.67a7.733,7.733,0,0,1,7.365-7.867l11.252-.478q.519-1.52,1.142-3.018l-7.671-7.419a7.7,7.7,0,0,1-.182-10.879l14.861-15.364a7.694,7.694,0,0,1,10.88-.181l7.647,7.4q.427-.2.856-.383l-.391-10.63a7.7,7.7,0,0,1,7.406-7.972l21.359-.786a7.687,7.687,0,0,1,7.972,7.406l.393,10.665q1.352.475,2.677,1.028l7.4-7.648a7.7,7.7,0,0,1,10.879-.182l15.365,14.86a7.7,7.7,0,0,1,.183,10.879l-7.419,7.671q.349.768.673,1.549l10.669-.2a7.692,7.692,0,0,1,7.834,7.552l.394,21.37a7.694,7.694,0,0,1-7.552,7.834l-10.636.2q-.338.909-.712,1.809l7.67,7.419a7.7,7.7,0,0,1,.182,10.879l-15.292,15.812a7.643,7.643,0,0,1-5.4,2.344h-.132a7.643,7.643,0,0,1-5.345-2.163l-7.827-7.569q-.556.246-1.119.477l.216,11.22a7.734,7.734,0,0,1-7.4,7.837l-21.675.835C2986.474,967.38,2986.372,967.382,2986.271,967.382Zm-9.933-25.108a2.336,2.336,0,0,1,.97.211c1.344.613,2.728,1.165,4.115,1.641a2.338,2.338,0,0,1,1.58,2.167l.259,13.453a3.017,3.017,0,0,0,3.133,2.957l21.675-.835a3.032,3.032,0,0,0,2.9-3.072l-.247-12.847a2.339,2.339,0,0,1,1.521-2.236c1.276-.477,2.544-1.017,3.77-1.605a2.335,2.335,0,0,1,2.639.427l8.976,8.68a3,3,0,0,0,2.1.848h.052a3,3,0,0,0,2.117-.919h0l15.293-15.811a3.018,3.018,0,0,0-.072-4.266l-8.836-8.546a2.339,2.339,0,0,1-.5-2.649,45.491,45.491,0,0,0,1.746-4.443,2.338,2.338,0,0,1,2.176-1.6l12.26-.225a3.016,3.016,0,0,0,2.962-3.073l-.393-21.37a3,3,0,0,0-.924-2.116,3.09,3.09,0,0,0-2.149-.844l-12.291.225h-.043a2.337,2.337,0,0,1-2.188-1.516c-.531-1.41-1.139-2.81-1.809-4.162a2.337,2.337,0,0,1,.414-2.664l8.545-8.836a3.018,3.018,0,0,0-.072-4.266l-15.364-14.859a3.02,3.02,0,0,0-4.266.072l-8.525,8.814a2.34,2.34,0,0,1-2.653.5,45.262,45.262,0,0,0-5.236-2.009,2.338,2.338,0,0,1-1.636-2.145l-.453-12.286a3.025,3.025,0,0,0-3.126-2.9l-21.36.786a3.021,3.021,0,0,0-2.9,3.127l.451,12.252a2.337,2.337,0,0,1-1.476,2.261c-1.176.465-2.363,1-3.529,1.576a2.341,2.341,0,0,1-2.668-.413l-8.815-8.525a2.885,2.885,0,0,0-2.148-.848,3,3,0,0,0-2.118.919l-14.859,15.364a3.018,3.018,0,0,0,.072,4.266l8.835,8.546a2.339,2.339,0,0,1,.5,2.648,45.554,45.554,0,0,0-2.1,5.553,2.337,2.337,0,0,1-2.137,1.655l-12.877.547a3.033,3.033,0,0,0-2.887,3.085l.5,21.669a3.018,3.018,0,0,0,3.145,2.944l13.477-.573a2.328,2.328,0,0,1,2.261,1.444c.389.942.816,1.884,1.27,2.8a2.341,2.341,0,0,1-.415,2.664l-9.609,9.935a3.017,3.017,0,0,0,.072,4.266l15.364,14.859a3.055,3.055,0,0,0,2.148.848,3,3,0,0,0,2.118-.919l9.589-9.915A2.341,2.341,0,0,1,2976.338,942.274Z" transform="translate(-2930.053 -835.486)" fill="#fdb958"/>
      </g>
      <g id="Group_147" data-name="Group 147" transform="translate(30.06 30.451)">
        <path id="Path_145" data-name="Path 145" d="M3017.062,958.807a35.627,35.627,0,1,1,25.626-10.859h0a35.389,35.389,0,0,1-25.014,10.855C3017.471,958.805,3017.265,958.807,3017.062,958.807Zm.021-66.563a30.943,30.943,0,1,0,22.243,52.452h0a30.935,30.935,0,0,0-22.243-52.452Z" transform="translate(-2981.468 -887.569)" fill="#fdb958"/>
      </g>
    </g>
    <path id="Path_146" data-name="Path 146" d="M3251.908,233.027h-136.6A31.491,31.491,0,0,1,3152,201.99a43.01,43.01,0,0,1,79.918,7.778A23.531,23.531,0,0,1,3251.908,233.027Z" transform="translate(-25315.877 -5904.207)" fill="#035aa7"/>
    <path id="Path_262" data-name="Path 262" d="M21.271,0H189.295a21.271,21.271,0,0,1,21.271,21.271v.21a21.271,21.271,0,0,1-21.271,21.271H21.271A21.271,21.271,0,0,1,0,21.48v-.21A21.271,21.271,0,0,1,21.271,0Z" transform="translate(-22198.334 -5619.22) rotate(-2)" fill="#035aa7"/>
    <text id="تفاصيل_المتجر" data-name="تفاصيل المتجر" transform="matrix(0.999, -0.035, 0.035, 0.999, -22157.492, -5593.302)" fill="#f5f5f5" font-size="34" font-family="Somar-Regular, Somar"><tspan x="0" y="0">تفاصيل المتجر</tspan></text>
    <g id="Group_111" data-name="Group 111" transform="translate(-22168.451 -5311.361)">
      <path id="Path_116" data-name="Path 116" d="M3396.125,1037.141l5.452-28.714a7.117,7.117,0,0,0-5.663-8.32l-16.046-3.047a63.136,63.136,0,0,0-1.368-6.527l13.453-9.192a7.116,7.116,0,0,0,1.861-9.89L3377.792,948a7.118,7.118,0,0,0-9.892-1.861l-13.486,9.215a63.36,63.36,0,0,0-5.306-3.475l3.047-16.045a7.117,7.117,0,0,0-5.664-8.319l-27.9-5.3a7.117,7.117,0,0,0-8.32,5.663l-3.039,16.009a63.126,63.126,0,0,0-7.658,1.669l-9.463-13.316a7.116,7.116,0,0,0-9.923-1.679l-23.151,16.451a7.117,7.117,0,0,0-1.679,9.924l9.437,13.28q-1.547,2.2-2.913,4.546l-16.008-3.04a7.117,7.117,0,0,0-8.319,5.664l-5.3,27.9a7.117,7.117,0,0,0,5.665,8.319l16.045,3.047a63.329,63.329,0,0,0,1.806,8.1l-13.9,10a7.116,7.116,0,0,0-1.7,9.821l16.364,23.7a7.117,7.117,0,0,0,10.011,1.734l14.551-10.465q1.772,1.205,3.632,2.3l-3.426,18.042a7.116,7.116,0,0,0,5.665,8.319l27.9,5.3a7.117,7.117,0,0,0,8.319-5.664l3.418-18.006q3.075-.473,6.065-1.24l10.1,14.753a7.117,7.117,0,0,0,10,1.774l23.467-16.736a7.117,7.117,0,0,0,1.741-9.814l-9.646-14.089q1.687-2.3,3.174-4.767l16.3,3.1A7.116,7.116,0,0,0,3396.125,1037.141Z" transform="translate(-3232.128 -922.091)" fill="#035aa7"/>
      <path id="Path_236" data-name="Path 236" d="M44.232,0A44.232,44.232,0,1,1,0,44.232,44.232,44.232,0,0,1,44.232,0Z" transform="translate(22.044 85.766) rotate(-45)" fill="none" stroke="#fff" stroke-width="6"/>
    </g>
  </g>
</svg>
